<?xml version="1.0" standalone="no"?>
<!DOCTYPE svg PUBLIC "-//W3C//DTD SVG 1.1//EN" "http://www.w3.org/Graphics/SVG/1.1/DTD/svg11.dtd" >
<svg xmlns="http://www.w3.org/2000/svg" xmlns:xlink="http://www.w3.org/1999/xlink" version="1.1">
<metadata></metadata>
<defs>
<font id="a_hundred_milesregular" horiz-adv-x="724" >
<font-face units-per-em="2048" ascent="1638" descent="-410" />
<missing-glyph horiz-adv-x="598" />
<glyph horiz-adv-x="0" />
<glyph unicode="&#xd;" horiz-adv-x="236" />
<glyph unicode=" "  horiz-adv-x="598" />
<glyph unicode="&#x09;" horiz-adv-x="598" />
<glyph unicode="&#xa0;" horiz-adv-x="598" />
<glyph unicode="!" horiz-adv-x="270" d="M71 998q-1 72 4 122t15 58q12 0 19 5t15 8t22 1t40 -16q2 -72 5 -167t7 -196t7 -198t3 -173q-4 -22 -19 -32t-33 -10t-33 10t-19 32q-4 28 -10 92t-11 143t-8 164t-4 157zM76 152q0 54 25 83t56 30t57 -25t28 -84q0 -56 -25 -87t-56 -33t-57 26t-28 90z" />
<glyph unicode="&#x22;" horiz-adv-x="406" d="M60 978q-8 20 1 37t26 28t37 14t32 -3q-16 -60 -1 -118t30 -107t14 -87t-49 -56q-16 0 -32 8t-20 30q-4 16 -11 53t-13 78t-10 76t-4 47zM216 1004q-8 20 1 37t26 28t37 14t32 -3q-16 -60 -1 -118t30 -107t14 -87t-49 -56q-16 0 -32 7t-20 29q-4 16 -11 54t-13 79t-10 76 t-4 47z" />
<glyph unicode="#" horiz-adv-x="942" d="M30 642q0 28 25 45t57 27t62 13t40 5v232q54 38 75 31t28 -42t11 -87t26 -100q20 0 57 2t74 9t64 22t27 41v264q58 0 81 -19t31 -50t11 -72t21 -85q2 -4 21 -5t41 -1h41t21 -4l2 -12t4 -27t4 -29t2 -18q-24 -16 -47 -33t-38 -37t-19 -42t12 -46h140q-6 -22 -25 -44 t-38 -42t-34 -39t-15 -37q0 -4 1 -11t1 -9q0 -4 6 -21t13 -35t12 -34t5 -20q0 -14 -8 -22t-20 -11t-24 -4t-20 -1q-36 0 -58 17t-42 37t-42 37t-58 17q-46 0 -73 -17t-44 -43t-27 -54t-20 -52t-24 -37t-38 -7q-10 16 -9 45t2 59t-2 55t-19 35q-28 16 -66 16t-70 1t-50 11 t-4 44l136 56v60q-22 0 -59 -10t-73 -10t-62 17t-26 71zM358 538h90t90 10t69 38t27 86q-12 0 -57 -4t-94 -14t-87 -27t-38 -41v-48z" />
<glyph unicode="$" horiz-adv-x="852" d="M64 246q0 64 36 102t106 38q0 -40 -20 -78t-20 -78q0 -52 38 -84t92 -49t112 -22t98 -5q0 70 2 142t1 145t-9 144t-28 137q-24 66 -58 141t-50 145t-3 126t79 84q22 0 37 -3t35 -9q8 56 24 82t30 23t20 -34t-6 -89h-16q50 -26 92 -68t70 -91t44 -99t16 -92q0 -16 -8 -52 t-34 -64q-34 8 -48 35t-19 62t-7 73t-12 69t-35 52t-75 21q0 -88 17 -157t43 -127t56 -110t56 -105t43 -112t17 -131q4 -70 -10 -119t-41 -83t-66 -52t-85 -24q2 -6 3 -22t-2 -32t-9 -29t-16 -13t-15 12t-8 29t-3 32t2 21q-72 0 -147 25t-141 68t-114 101t-64 124zM576 441 q0 -59 2 -128t9 -133t21 -94q18 0 36 13t31 32t22 39t11 34q4 34 -6 78t-29 88t-45 84t-52 68v-81z" />
<glyph unicode="%" horiz-adv-x="1398" d="M90 632q50 152 92 242t79 137t73 60t74 12t81 -7t96 1t119 36t148 101q36 -22 55 -63t19 -81q0 -118 -18 -225t-43 -212t-53 -210t-46 -217q-28 -94 -42 -155t-30 -100t-40 -63t-70 -44l194 1144q-92 0 -145 -43t-87 -106t-57 -138t-55 -138t-82 -106t-136 -43 q-32 0 -58 24t-42 58t-23 71t-3 65zM200 628q-2 -44 36 -68q36 0 70 27t60 65t41 79t15 71q0 20 -3 41t-15 34t-35 17t-61 -8q-12 -28 -39 -73t-47 -93t-22 -92zM974 283v87q0 54 3 101t18 82t49 54t96 19q90 0 146 -33t56 -133q0 -44 -19 -93t-50 -89t-74 -67t-91 -27 q-56 0 -84 10t-39 32t-11 57zM1070 324q78 0 122 45t44 127q-72 0 -119 -51t-47 -121z" />
<glyph unicode="&#x26;" horiz-adv-x="800" d="M40 458q0 56 31 99t79 77t108 62t116 56t104 57t72 67l-80 194q30 56 60 49t56 -48t47 -105t32 -121t11 -95t-14 -30q-96 -12 -189 -47t-161 -75t-96 -75t6 -47q24 12 60 29t74 35t75 31t65 15q32 0 45 -23t13 -51q0 -44 -28 -83t-56 -72t-40 -62t18 -53q34 22 77 37 t85 19q32 16 57 -5t43 -63t28 -96t13 -105t-4 -92t-23 -53q-36 -28 -52 -15t-24 52t-12 97t-14 122q-28 14 -65 8t-77 -19t-78 -30t-68 -23q-34 -16 -60 10t-16 80q0 50 24 105t52 97q-46 -22 -76 -31t-72 -9q-56 0 -101 34t-45 96z" />
<glyph unicode="'" horiz-adv-x="224" d="M74 638q-6 70 0 119t14 81t14 47t2 19q52 8 68 -14t14 -63t-13 -91t-11 -98q-18 0 -28 -4t-19 -7t-18 -2t-23 13z" />
<glyph unicode="(" horiz-adv-x="500" d="M26 507q6 113 32 223t68 205t97 167t117 110q22 12 38 3t23 -27t4 -39t-19 -33q-48 -28 -103 -114t-96 -204t-57 -253t13 -260t114 -228t249 -155q0 -44 -35 -59t-75 -15q-108 30 -182 98t-118 160t-60 200t-10 221z" />
<glyph unicode=")" horiz-adv-x="490" d="M18 -80q122 40 200 108t119 153t52 182t0 195t-40 190t-67 168t-79 130t-77 76q-16 12 -17 34t8 43t27 32t40 -1q62 -38 117 -110t97 -167t68 -205t32 -223t-10 -221t-60 -200t-118 -160t-182 -98q-40 0 -75 15t-35 59z" />
<glyph unicode="*" horiz-adv-x="1138" d="M76 564q-4 52 41 85t107 58t124 46t94 49q22 14 36 56t27 90t26 88t35 48t55 -28t83 -140q60 0 114 -11t97 -31t73 -48t42 -62q16 -42 -5 -92t-89 -102q4 -28 8 -83t3 -114t-11 -113t-35 -83t-66 -23t-103 68q-40 0 -81 -18t-84 -40t-88 -40t-93 -18v370q0 22 -23 29 t-57 7t-75 -2t-75 1t-57 14t-23 39zM356 622q0 -18 14 -18q12 0 12 18t-12 18q-14 0 -14 -18zM510 608q0 -46 21 -76t53 -52t72 -39t76 -37q58 70 75 159t17 173q-36 0 -89 -3t-103 -16t-86 -39t-36 -70zM514 222l108 110q-16 24 -37 48t-53 24h-18v-182zM826 331 q0 -19 14 -19q16 0 16 19t-16 19q-14 0 -14 -19zM898 730q0 -18 14 -18q20 6 31 15t12 17t-9 10t-34 -6q-14 0 -14 -18z" />
<glyph unicode="+" d="M77 578q7 22 37 38l99 11t99 9v176q-4 28 7 52t30 35t41 6t42 -31l4 -226q44 4 87 5t87 3q24 -6 33 -24t6 -39t-15 -41t-32 -28l-164 -12l2 -212q-2 -24 -19 -36t-38 -12t-41 9t-32 27l2 212l-154 -12q-28 0 -50 14t-30 34t-1 42z" />
<glyph unicode="," horiz-adv-x="308" d="M50 -118q0 18 6 55t17 80t27 87t35 79t42 53t49 10v-124t-9 -152t-35 -128t-76 -54q-16 0 -27 10t-17 24t-9 31t-3 29z" />
<glyph unicode="-" horiz-adv-x="772" d="M73 503q7 25 37 41q132 16 263 26t269 14q24 -6 33 -26t6 -45t-15 -48t-32 -31l-480 -36q-28 0 -50 17t-30 40t-1 48z" />
<glyph unicode="." horiz-adv-x="354" d="M99 95q5 37 34 70t81 43q36 -10 57 -43t19 -69t-26 -65t-78 -31q-48 0 -70 29t-17 66z" />
<glyph unicode="/" horiz-adv-x="594" d="M27 -95q-7 15 1 37l472 1220q14 16 30 18t30 -8t21 -33t5 -57l-470 -1198q-16 -8 -34 -8t-33 7t-22 22z" />
<glyph unicode="0" horiz-adv-x="846" d="M40 890q2 112 8 200q2 30 18 62t44 32t33 -27t11 -57q64 68 138 85t147 -4t140 -74t118 -126t80 -161t29 -178q8 -106 -12 -219t-68 -206t-123 -153t-173 -60q-104 6 -174 65t-114 151t-66 207t-30 233t-6 230zM138 944q4 -40 6 -116t10 -167t24 -186t45 -172t75 -126 t114 -49q82 0 139 50t92 128t48 173t5 187q-20 144 -82 245t-143 144t-170 20t-163 -131z" />
<glyph unicode="1" horiz-adv-x="342" d="M16 1118q0 24 14 37t32 14t36 -8t28 -27q6 -36 21 -118t33 -187t37 -222t34 -221t26 -184t13 -114q0 -28 -10 -52t-27 -35t-36 -4t-37 39q-8 46 -19 134t-24 196t-27 224t-30 221t-32 187t-32 120z" />
<glyph unicode="2" horiz-adv-x="834" d="M34 882q8 28 37 63t69 70t87 69t92 60t84 41t63 13q66 -8 99 -51t41 -112t-6 -159t-42 -192q-16 -54 -47 -124t-68 -144t-73 -145t-60 -125q32 -6 101 19t146 61t148 74t111 56q28 -36 18 -71t-45 -68t-90 -62t-118 -53t-127 -44t-118 -32q-28 0 -56 -5t-51 -2t-38 22 t-15 67q14 56 48 136t75 171t82 185t70 179t39 154t-12 109q-20 22 -64 10t-96 -49t-108 -91t-100 -116q-26 0 -51 22t-25 64z" />
<glyph unicode="3" horiz-adv-x="904" d="M48 904q30 68 90 119t129 85t132 53t99 25q66 0 94 -44t28 -108q0 -60 -6 -104t-34 -100q54 -24 106 -47t94 -55t68 -77t26 -111q0 -44 -18 -102t-48 -119t-72 -118t-89 -99t-98 -63t-101 -11q-46 10 -56 44t-10 74q52 0 118 38t125 97t100 132t41 143q-8 58 -36 84 t-65 34t-78 6t-75 1t-57 17t-23 54q0 36 11 68t24 62t24 60t11 64q-26 34 -61 36t-73 -16t-78 -49t-77 -62t-68 -57t-53 -32q-34 0 -39 24t-5 54z" />
<glyph unicode="4" horiz-adv-x="1012" d="M31 817q1 57 6 121t12 126t17 108q10 0 28 -1t36 -7t32 -15t16 -23q-22 -200 -22 -300t24 -141t73 -45t125 -12q120 18 191 49t109 70t48 82t5 86t-17 83t-19 71t-3 51t34 24t54 -21t42 -45q0 -120 20 -250t47 -261t53 -258t36 -239q-8 -34 -23 -50t-33 -16t-34 16 t-26 46q-22 74 -40 154t-31 155t-22 142t-15 115q-94 -54 -172 -81t-182 -41q-60 -6 -122 -3t-114 25t-87 68t-43 126q-4 34 -3 91z" />
<glyph unicode="5" d="M29 793q3 91 74 170t194 137t267 80q82 10 97 -24t-51 -98q-38 -2 -94 -13t-113 -32t-110 -51t-86 -67t-41 -83t24 -98q58 -50 137 -77t155 -54t137 -66t83 -115q24 -78 0 -155t-74 -135t-113 -90t-119 -22q-30 -2 -62 16t-46 39t0 38t78 13q68 -2 119 33t77 85t23 105 t-39 91t-95 61t-122 46t-120 42t-89 47q-94 86 -91 177z" />
<glyph unicode="6" horiz-adv-x="938" d="M28 533q-8 123 8 239t53 216t101 162q52 50 80 55t38 -12t4 -46t-20 -43q-16 -6 -41 -56t-49 -127t-42 -174t-19 -197t20 -194t73 -164q44 64 103 136t128 134t148 105t165 47q38 0 66 -15t46 -41t27 -57t9 -63q0 -66 -31 -122t-80 -102t-113 -81t-129 -62t-126 -46 t-107 -29q0 -46 -14 -76t-36 -34q-18 -4 -28 9t-15 33t-5 40t2 32q-62 34 -109 115t-73 188t-34 230zM362 150q0 -32 34 -35t84 15t109 51t109 71t84 77t34 69q0 58 -21 85t-71 17q-22 -4 -58 -23t-76 -49t-81 -66t-74 -73t-53 -74t-20 -65z" />
<glyph unicode="7" horiz-adv-x="1036" d="M-11 837q3 27 29 61q50 26 118 60t141 69t149 69t142 60q60 24 89 8t39 -56t10 -98t4 -120l288 104q-22 -66 -55 -102t-74 -62t-86 -51t-93 -65l18 -694q-6 -2 -23 -7t-36 -7t-33 1t-14 15l-20 648l-242 -92q-8 54 0 86t34 58t70 51t106 65q0 26 7 62t9 66t-9 46t-49 2 q-124 -50 -242 -114t-240 -108q-40 18 -37 45z" />
<glyph unicode="8" horiz-adv-x="744" d="M62 880q-6 74 5 134t43 90q58 56 113 66t100 -14t76 -79t41 -129t-7 -162t-65 -178q120 -50 201 -135t108 -173t-8 -166t-147 -114q-58 10 -109 29t-87 43t-51 51t-1 53t68 38q22 -32 61 -60t78 -30t67 33t26 129q-20 54 -57 88t-77 54t-76 26t-54 4q-32 -4 -45 -33 t-16 -68t-2 -83t-5 -76q-6 -30 -17 -52t-27 -30t-35 2t-39 46l26 398q-36 68 -59 146t-29 152zM173 933q1 -37 7 -76t15 -74t15 -55q8 -32 24 -33t34 17t35 51t29 70t17 73t-1 60q-12 44 -35 65t-48 23t-47 -13t-34 -43t-11 -65z" />
<glyph unicode="9" horiz-adv-x="926" d="M18 858q18 66 70 123t116 99t128 68t106 30q26 0 35 -3t11 -13t0 -29t4 -51q-32 -14 -89 -48t-113 -76t-97 -83t-42 -69t52 -33t187 25q98 28 142 72t60 91t13 93t-1 79t20 47t76 0l166 -1042q42 -16 40 -36t-24 -39t-55 -36t-53 -25l-120 804q-78 -76 -190 -117 t-232 -45q-214 -12 -210 214z" />
<glyph unicode=":" horiz-adv-x="414" d="M95 759q-5 27 10 55t59 48q48 0 76 -33t28 -79q-20 -42 -48 -56t-54 -9t-46 26t-25 48zM141 492q-9 30 0 58t49 44q48 0 82 -35t34 -83q-10 -50 -34 -65t-50 -7t-49 33t-32 55z" />
<glyph unicode=";" horiz-adv-x="400" d="M90 372q0 20 10 40t26 35t36 24t38 9q52 -14 73 -40t19 -53t-22 -49t-49 -29t-64 6t-67 57zM198 110q0 30 7 60t49 30q20 -4 36 -19t27 -59t17 -129t10 -229q0 -22 -19 -30t-35 -8q-32 0 -51 47t-28 111t-11 128t-2 98z" />
<glyph unicode="&#x3c;" horiz-adv-x="960" d="M102 414q0 2 5 10t23 31t55 65t102 113t162 174t237 249q46 -22 49 -62t-24 -90t-78 -108t-112 -118t-124 -118t-115 -110q24 -48 71 -73t105 -39t124 -20t127 -15t113 -25t84 -48q0 -30 -18 -45t-44 -21t-54 -6h-48q-34 0 -95 4t-132 14t-144 29t-133 47t-98 68t-38 94z " />
<glyph unicode="=" horiz-adv-x="868" d="M64 328q0 18 10 33t24 25q60 16 145 23t176 8t177 -1t146 -2q46 -2 67 -21t19 -41t-23 -39t-59 -15l-614 -32q-36 12 -52 28t-16 34zM70 581q12 29 49 46t90 24t110 8t113 -1t96 0h36t55 -1t54 -1h35q18 -6 27 -17t12 -26t2 -32t-3 -33q-72 -6 -155 -14t-170 -15 t-174 -11t-165 -4q-24 48 -12 77z" />
<glyph unicode="&#x3e;" horiz-adv-x="960" d="M34 908q0 24 27 52t47 38l800 -182q10 -56 -12 -130t-66 -152t-104 -153t-127 -135t-136 -97t-131 -39q-38 32 -26 62t53 64t101 76t121 98t111 128t70 168q-178 38 -302 66t-205 49t-126 34t-66 23t-25 17t-4 13z" />
<glyph unicode="?" horiz-adv-x="828" d="M32 938q14 56 75 103t144 79t176 47t172 6t132 -45t57 -104q10 -20 -9 -67t-58 -108t-92 -130t-112 -135t-117 -121t-106 -89q-16 -22 -43 -17t-47 24t-23 44t27 47q12 16 50 53t88 84t104 100t99 105t75 98t32 78q0 46 -25 61t-67 15q-140 0 -262 -50t-230 -134 q-22 10 -31 22t-9 34zM196 110q6 38 30 59t52 23t53 -16t31 -60q0 -52 -27 -72t-58 -17t-57 26t-24 57z" />
<glyph unicode="@" horiz-adv-x="1294" d="M52 510q-10 102 5 205t59 191t120 154t190 98q108 30 211 14t196 -69t170 -135t131 -184q18 -32 40 -87t39 -119t27 -130t4 -123t-32 -99t-78 -54q-34 -8 -62 11t-55 47t-55 55t-64 37q-24 -32 -55 -77t-69 -87t-82 -74t-93 -36t-104 27t-113 113q-46 66 -67 150t2 171 t98 166t221 137q34 14 69 22t67 4t61 -23t51 -61q18 -34 25 -64t12 -61t13 -63t26 -66q22 -42 44 -76t70 -60q30 40 37 86t0 94t-27 98t-46 98q-36 66 -92 131t-126 113t-150 70t-162 2q-76 -18 -151 -75t-126 -147t-66 -212t29 -270q68 -162 160 -260t194 -149t209 -66 t205 -12t181 15t141 14q6 -32 -2 -54t-23 -38t-37 -25t-44 -15q-138 -34 -280 -28t-273 53t-247 134t-202 219q-50 76 -82 172t-42 198zM414 396q-6 -70 32 -156q16 -40 57 -63t79 -15q76 18 132 77t84 135t22 159t-54 151q-14 14 -53 11t-87 -24t-96 -59t-79 -92t-37 -124z " />
<glyph unicode="A" horiz-adv-x="788" d="M2 994q-2 20 5 31t31 27q28 -16 49 -46t35 -64t23 -70t15 -62q4 132 74 250q28 48 61 80t68 42q13 4 27 4q22 0 44 -10q36 -16 72 -66q54 -76 81 -159t41 -170t20 -177t17 -176t33 -168t66 -156q2 -32 -20 -42t-74 -14q-42 60 -67 136t-39 158t-20 165t-10 155q-4 1 -9 1 q-26 0 -67 -18q-48 -21 -94 -48t-81 -50t-37 -21l24 -504q2 -22 -15 -32t-40 -11t-44 7t-29 22l-22 470q0 34 -15 107t-34 153t-38 152t-31 104zM246 676q14 14 53 30t81 36t75 44t33 54q-2 20 -8 55t-18 68t-31 55t-47 20q-36 -4 -62 -50t-44 -105t-26 -118q-6 -47 -6 -76 v-13z" />
<glyph unicode="B" horiz-adv-x="800" d="M36 1102q4 28 21 47t36 20t35 -20t22 -75q26 58 66 85t85 30h12l78 -16q45 -19 79 -51q30 -32 51 -89t29 -118q4 -33 4 -64q0 -27 -3 -54q-7 -57 -33 -87q20 4 39 4q36 0 69 -15q50 -23 86 -68t57 -104t21 -119q0 -92 -30 -158t-78 -111t-110 -73t-128 -42t-130 -19 t-114 -5q-56 122 -79 259t-33 279t-18 286t-34 278zM178 808q0 -66 3 -159t14 -190t33 -186t58 -147q56 0 122 14t124 49t99 94t51 149q-2 30 -9 67t-35 64t-88 33q-10 1 -21 1q-57 0 -149 -25q-18 -16 -33 -12t-22 21t-3 45t26 62q0 20 16 31t34 33t35 62t21 118 q-30 82 -64 118t-67 37h-2q-32 0 -60 -25q-29 -26 -50 -67t-31 -91q-6 -28 -6 -54q0 -22 4 -42z" />
<glyph unicode="C" horiz-adv-x="720" d="M57 593q3 75 14 154t32 156t55 140t82 106t114 57q26 6 54 5t49 -13t33 -36q10 -21 10 -53v-11q-9 1 -17 1q-77 0 -135 -49q-64 -54 -104 -140t-58 -194q-15 -88 -14 -173v-37q4 -66 20 -144t48 -139t80 -89q21 -12 45 -12q31 0 69 20q30 26 59 58t57 62t53 52t45 27 t34 -12t20 -65q-18 -34 -58 -77t-85 -83t-84 -69t-55 -35q-33 -7 -64 -7q-53 0 -95 22q-67 35 -110 103t-66 158t-27 180q-2 35 -2 75q0 30 1 62z" />
<glyph unicode="D" horiz-adv-x="862" d="M2 1106q86 72 179 77q10 1 20 0q83 0 162 -36q89 -41 169 -118t140 -168t95 -188q33 -92 33 -170v-9q0 -52 -18 -131t-52 -152t-85 -125t-119 -52q-20 0 -44 2t-44 9t-33 22t-13 41q4 4 52 25t104 66t101 117q41 66 41 159v17q-4 50 -30 121t-68 144t-95 139t-111 108 t-118 50q-9 1 -18 1q-50 0 -94 -37q0 -62 13 -145t33 -177t44 -193t44 -193t33 -177t13 -143q-12 0 -30 1t-36 5t-32 13t-20 27q-16 130 -37 273t-47 284t-59 273t-73 240z" />
<glyph unicode="E" horiz-adv-x="908" d="M16 496q0 36 23 77t51 61v380q88 2 180 27t179 58t165 63t139 45q35 9 63 9q20 0 36 -5q38 -11 44 -63q-32 -26 -96 -49t-140 -47t-157 -48t-146 -51t-106 -58q-39 -30 -39 -64q0 -121 58 -121q42 0 81 13t78 30t78 30t79 13q22 0 39 -19t17 -45q2 -28 -28 -46t-75 -32 t-98 -30t-98 -41t-76 -64t-31 -101q0 -48 8 -91t26 -76t49 -53t77 -20h9q40 0 87 31q52 35 100 86t86 106t56 91q20 -22 23 -50t-5 -59t-23 -62t-33 -57q-22 -30 -62 -75t-87 -87t-95 -73t-86 -31q-72 0 -116 50t-70 120t-37 145t-15 125q-16 -6 -35 -6t-36 7t-29 21t-12 36 z" />
<glyph unicode="F" horiz-adv-x="802" d="M18 916q-2 22 16 52t42 58t45 49l27 27q34 4 100 17t141 26t148 25t123 12h7q37 0 75 -19q42 -21 46 -71q0 -38 -14 -53t-37 -15t-52 13t-59 31q-12 0 -68 -7t-118 -17t-111 -23t-49 -25l62 -272q56 0 105 16t97 35t97 35t107 18q20 -20 20 -55t-50 -61q-18 -10 -67 -26 t-104 -32t-106 -32t-71 -26l54 -586q-14 -20 -32 -27t-34 -9q-20 -2 -40 0l-70 584q-40 6 -55 32t-14 57t12 59t23 34q-6 72 -22 105t-37 43t-45 5t-43 -9t-33 0t-16 32z" />
<glyph unicode="G" horiz-adv-x="972" d="M44 770q14 122 59 229t127 179q42 0 67 -36t25 -88q-48 -22 -79 -73t-49 -111t-25 -118t-7 -96q-1 -28 -1 -55q0 -141 27 -235q32 -112 89 -166t129 -55h3q71 0 144 45q75 46 143 134t116 210q1 12 1 22q0 53 -26 70q-21 13 -48 13q-14 0 -30 -3q-47 -10 -100 -42 t-91 -64q-34 0 -45 30t-11 64q46 54 121 93t150 45q11 1 22 1q61 0 111 -30q58 -35 72 -129q0 -80 -30 -160t-80 -152t-114 -132t-131 -100t-131 -56q-32 -8 -61 -8t-55 8q-78 26 -138 103t-99 184t-54 232q-8 65 -8 129q0 59 7 118z" />
<glyph unicode="H" horiz-adv-x="978" d="M43 853q-2 38 -2.5 71t2.5 62q5 58 29 82q28 18 43 -4t25 -64q8 -36 11 -82t9 -88t18 -73t40 -37q62 0 133 7t142 23t136 42t113 66q-6 20 -14 57t-16 77t-15 76t-11 58q0 12 14 28t33 28t37 15t26 -15q32 -70 51 -166t30 -203t16 -220t11 -218t16 -196t30 -155 q0 -6 -10 -16t-29 -15t-45 0t-60 31q0 18 -2 60t-4 97t-5 116t-5 115t-5 95t-5 59q-4 42 -7 65t-11 34t-23 13t-43 2q-24 0 -67 -6t-94 -15t-104 -21t-96 -25t-71 -25t-28 -22q18 -126 24 -209t6 -135t-4 -77t-4 -37q0 -10 1 -27t-2 -34t-12 -30t-27 -17q-42 18 -63 52 t-30 75t-10 84t-7 79q1 11 1 25q0 28 -5 71q-8 64 -20 142t-24 164t-17 161z" />
<glyph unicode="I" horiz-adv-x="294" d="M18 1104q0 28 23 54t57 26q38 -32 64 -126t45 -217t29 -259t15 -253t6 -199t1 -98q0 -10 -14 -17t-33 -9t-37 2t-24 16q-6 114 -9 248t-15 275t-36 284t-72 273z" />
<glyph unicode="J" horiz-adv-x="530" d="M63 235q1 33 9 49t26 12t52 -40q0 -42 23 -66t53 -33t58 -7t38 10q38 50 40 130v15q0 73 -18 158q-20 93 -54 193t-69 189t-63 161t-36 110q0 26 32 33t66 15q62 -122 109 -253t78 -248t47 -210t18 -137q0 -48 -7 -102t-27 -99t-56 -74t-92 -29q-36 0 -75 9t-73 28 t-56 47t-22 66q-1 27 -1 50v23z" />
<glyph unicode="K" horiz-adv-x="1042" d="M32 1135q6 25 19 39t32 17t37 -7q20 -36 40 -94t38 -126t33 -141t25 -139t16 -120q4 -40 4 -66v-16q48 52 100 136t106 172t108 165t106 113q14 12 33 9t31 -15t15 -30t-15 -36q-20 -42 -69 -119t-104 -158t-103 -153t-64 -106q32 -30 104 -36q33 -3 69 -2q42 0 88 3 q85 7 172 22t151 25q32 10 51 5t9 -57q-34 -46 -121 -66t-197 -26q-82 -4 -170 -4h-58q-118 2 -216 4v-260q-4 -54 -42 -72q-12 -6 -24 -6q-27 0 -54 28q-2 132 -9 267t-24 270t-45 266t-70 255q-8 34 -2 59z" />
<glyph unicode="L" horiz-adv-x="816" d="M40 1156q22 48 52 50h2q28 0 44 -50q4 -46 5 -140t8 -207t22 -231t45 -215t79 -159t125 -62q56 0 103 25t91 54t88 54t96 25q0 -66 -43 -122t-106 -97t-134 -63t-127 -22q-88 0 -149 71t-99 183t-59 248t-31 265t-11 235t-1 158z" />
<glyph unicode="M" horiz-adv-x="1076" d="M42 1072q-2 13 -2 23q0 30 13 42q17 17 49 21h6q39 0 70 -49q34 -53 65 -136t59 -179t57 -178t63 -135q32 -49 68 -49h6q52 74 72 160t28 178t13 187t29 189q14 34 37 39h4q21 0 45 -47q26 -52 56 -138t62 -189t63 -212t59 -209t49 -180t33 -124q0 -12 2 -31t-3 -36 t-20 -28t-47 -5l-242 826q-24 -36 -38 -91t-25 -117t-22 -122t-30 -107t-49 -72q-21 -18 -52 -18q-12 0 -26 3q-22 -2 -51 25t-59 70t-59 96t-54 103l-45 90t-30 58q0 -8 8 -63t19 -133t24 -169t23 -169t17 -133t5 -63q-4 -18 -18 -28t-31 -12t-33 5t-26 23z" />
<glyph unicode="N" horiz-adv-x="1088" d="M44 1092q-2 16 9 25t26 14t30 6t23 1h2q23 0 55 -40q33 -42 72 -112t84 -160t93 -183t98 -183t99 -159t96 -110q43 -37 83 -37h8q64 20 90 68q23 43 23 102v14q-3 68 -28 150t-62 168t-78 170t-77 158t-60 131t-26 87q9 1 18 1q40 0 77 -15q45 -18 77 -64q36 -72 80 -184 t85 -235t74 -240t45 -199q3 -20 3 -38q0 -29 -8 -53q-13 -39 -40 -67t-63 -44t-74 -18h-13l-119 33q-66 37 -128 101t-119 147t-109 169t-96 167t-80 141q-6 -19 -6 -49q0 -21 3 -47q7 -64 24 -142t39 -163t42 -162t34 -138t14 -89q4 -28 -17 -33t-50 5t-57 34t-34 54z" />
<glyph unicode="O" horiz-adv-x="904" d="M36 1030q6 48 21 82t30 43t30 -11t21 -78q10 -74 14 -179t11 -217t22 -221t45 -189t81 -121q33 -27 79 -27q24 0 52 8q44 0 99 31t104 83t82 122t33 148q0 92 -33 195t-86 190t-118 143t-127 56q-18 12 -40 0t-44 -34t-41 -46t-34 -38t-24 -9t-7 43q0 62 18 99t46 57 t63 26t69 6q88 0 171 -62t148 -163t105 -228t40 -257q0 -112 -46 -201t-114 -152t-147 -97t-143 -34q-90 0 -153 49t-104 131t-65 189t-35 221t-16 229t-7 213z" />
<glyph unicode="P" horiz-adv-x="816" d="M52 1030v11q0 40 27 62q31 25 74 36t89 14t74 5q29 2 63.5 2t73.5 -2q79 -4 151 -27t124 -70t58 -131q1 -8 1 -16q0 -52 -23 -105q-26 -61 -70 -111t-101 -82t-115 -36q-20 -2 -51 0t-60 10t-51 24t-24 46q-2 26 31 41t81 26t104 22t99 31t66 53q13 19 13 44q0 20 -8 45 q-12 36 -52 62t-90 41t-99 21q-37 4 -63 4h-16q-50 -4 -81 -23t-47 -49t-20 -70q-3 -27 -2 -56v-30q2 -34 7 -90t12 -122t17 -136t25 -133t35 -113t46 -76q28 32 45 33t24 -17t5 -49t-12 -60t-26 -51t-36 -22h-2q-41 0 -77 68q-37 70 -70 178t-60 238t-46 247t-30 203 t-13 110z" />
<glyph unicode="Q" horiz-adv-x="978" d="M56 716q2 92 14 185t41 163t79 107q32 24 77 24q24 0 51 -7q13 1 26 1q84 0 174 -45q104 -52 194 -147t153 -223t77 -270q0 -46 -17 -84t-37 -73t-37 -69t-17 -70q0 -24 12 -38t27 -27t28 -30t13 -45q12 -44 -9 -48t-54 11t-69 41t-54 42q-60 -32 -103 -54t-82 -36 t-80 -22t-93 -10h-18q-82 0 -135 34q-59 38 -92 100t-45 139t-14 153q-4 46 -8 126q-3 53 -3 112q0 29 1 60zM168 721q0 -83 3 -160t3 -121q0 -54 13 -107t37 -96t57 -70t75 -31q22 0 61 4t76 14t63 30t26 54t-9 55t-18 43t-16 53q-4 17 -4 39q0 20 3 44l186 -176 q72 38 95 112q14 45 14 95q0 32 -6 67q-15 88 -59 178t-105 161t-132 110q-54 30 -107 30q-16 0 -32 -3q-36 0 -46 -19t-13 -41t-9 -41t-32 -21q-30 0 -54 28t-38 46q-18 -42 -25 -118t-7 -159z" />
<glyph unicode="R" horiz-adv-x="946" d="M12 946q-2 24 12 38t34 22t42 11t38 5l22 -376q18 20 29 65t24 100t32 116t55 114t91 93t141 54q30 2 59 -6t53 -25t40 -42t18 -57v-15q0 -56 -26 -125q-30 -78 -72 -157t-87 -151t-69 -122q120 4 235 17t197 19q30 2 57 -4t37 -18t-1 -32t-59 -44q-12 -4 -64 -10 t-122 -14t-148 -17t-144 -20t-109 -22t-41 -23l20 -268q-10 -12 -24 -25t-29 -18t-30 2t-27 33q-20 50 -38 126t-34 164t-31 182t-28 177t-27 150t-26 103zM276 480q56 54 114 123t105 145t76 158q24 68 24 135q0 14 -1 27q-96 -10 -158 -77t-97 -158t-49 -188t-14 -165z " />
<glyph unicode="S" horiz-adv-x="662" d="M64 228q-2 14 2 39t14 50t25 45t35 24q6 -38 18 -95t34 -108t57 -82q24 -21 57 -22q15 0 32 5q38 10 73 30t59 50t34 68q6 21 6 45q0 19 -4 39q-12 68 -46 126t-79 109t-95 101t-94 103t-79 111t-47 130q-5 20 -5 39q0 35 18 62q27 41 75 63t106 25h18q48 0 91 -13 q51 -16 84 -52q29 -32 29 -79v-11q2 -6 0 -17t-6 -24t-9 -24t-7 -15q-22 14 -47 36t-52 42t-52 35t-47 15t-40 -16t-26 -58q18 -98 80 -179t133 -159t133 -158t80 -178q5 -24 5 -48q0 -38 -12 -74q-19 -60 -59 -109t-96 -82t-118 -41q-24 -4 -45 -4q-38 0 -69 12 q-48 18 -81 54t-53 85t-30 105z" />
<glyph unicode="T" horiz-adv-x="978" d="M10 894q-2 44 34 67t83 37t94 23t69 25q4 38 26 61t50 31t58 -1t48 -35l496 96v-13q0 -46 -13 -65q-15 -22 -51 -38q-22 -10 -86 -24t-136 -29t-136 -29t-86 -22l6 -852q28 6 33 -16t-5 -51t-32 -57t-46 -36q-26 -4 -39 14t-15 52l-28 900q-32 -4 -80 -21t-96 -30 t-89 -14h-3q-39 0 -56 27z" />
<glyph unicode="U" horiz-adv-x="788" d="M26 932q-4 34 21 48t53 16h3q30 0 53 -36q24 -38 43 -100t35 -142t34 -162t39 -159t51 -133t70 -84q25 -18 57 -18q18 0 39 6q30 8 51 64t35 143t22 194t12 216t7 211t5 178q2 0 8 1t10 1q26 2 41 -2t22 -12t9 -21t4 -27q2 -36 4 -125q1 -36 1 -75q0 -59 -2 -128 q-3 -114 -14 -239t-35 -231t-63 -181t-97 -87q-29 -12 -55 -12q-22 0 -43 8q-46 18 -84 55t-64 82t-36 77q-10 28 -27 84t-38 124t-44 143t-46 140t-44 115t-37 68z" />
<glyph unicode="V" horiz-adv-x="858" d="M-4 932q16 38 48 47t44 -11l410 -724q28 50 53 129t49 172t45 192t41 193t38 175t36 137q18 2 31 -9t22 -28t14 -36t7 -33q0 -2 -3 -21t-12 -65t-26 -124t-44 -201t-67 -295t-96 -404l-96 -16z" />
<glyph unicode="W" horiz-adv-x="1266" d="M28 1124q18 26 38 33t41 0t39 -25t32 -38l200 -804q20 26 41 82t46 111t55 98t66 45h7q44 0 74 -25q33 -27 59 -68t48 -89t51 -89t70 -67q38 -24 93 -24h8q52 2 74 58t25 143q1 19 1 38q0 71 -9 154q-11 105 -24 206t-24 184q-8 61 -8 100q0 14 1 25q-4 10 7 25t19 17 q28 2 44 0t25 -10t14 -20t9 -28q10 -56 25 -155t26 -214t12 -233v-11q0 -111 -19 -204q-20 -97 -68 -158t-132 -61h-9q-52 0 -92 22q-43 24 -77 60t-60 79t-52 79t-52 60t-58 24q-14 -8 -27 -48t-26 -93t-27 -113t-30 -110t-35 -84t-43 -34q-16 0 -35 8t-25 28 q-60 186 -106 334t-80 263t-57 199t-37 142q-36 138 -38 188z" />
<glyph unicode="X" horiz-adv-x="776" d="M-15 1064q10 11 33.5 11t61.5 -11q18 -8 42 -36t49 -69t54 -88t58 -93t59 -85t60 -61q8 32 20 87t28 118t39 129t55 119t74 86t96 33q-4 -58 -33 -128t-63 -153t-60 -178q-24 -88 -24 -184v-15q0 -58 37 -114t81 -108t81 -99t37 -87q6 -30 -1 -46t-20 -21t-30 -2t-35 13 q-52 64 -111 138t-117 134l-168 -354q0 -2 -7 -3t-11 -1q-36 0 -50 29t-14 65q-2 16 14 60t39 101t47 121t40 122q-20 58 -66 123t-99 129t-105 127t-82 119q-17 30 -17 50q0 13 8 22z" />
<glyph unicode="Y" horiz-adv-x="1030" d="M32 1049q-4 25 -4 47t4 43q8 41 50 53h12q48 0 64 -28q18 -32 20 -86q1 -22 1 -45q0 -36 -2 -77q-1 -12 -1 -24q0 -56 12 -112q10 -48 21 -99t32 -93t58 -69q34 -25 89 -25h8q114 2 194 63t127 153t62 202q7 53 7 105q0 54 -8 107h38t36 -4t30 -18t20 -40 q32 -164 53 -329t39 -333q6 -30 9 -100q1 -18 1 -35q0 -54 -7 -112q-9 -77 -34 -140t-75 -77q-48 0 -65 18t-25 52q-1 3 -1 8q0 19 14 57q17 47 35 114t29 150q4 31 4 64q0 52 -11 107q-2 8 -6 29t-10 45t-10 44t-6 28q-20 -52 -65 -106t-107 -98t-135 -73t-147 -31h-9 q-56 0 -98 23q-45 25 -77 67t-54 95t-36 108t-23 107t-17 92q-2 26 -15 75t-21 98z" />
<glyph unicode="Z" horiz-adv-x="920" d="M36 648q16 36 73 59t122 36t122 18t73 7l7 28t8 43t5 44t2 31q-4 40 -31 64t-67 37t-86 16q-34 2 -67 2h-21q-42 -1 -73 -4t-41 -3q-2 20 -2 36q0 24 4 41q6 27 24 41t48 17t76 3h16q107 0 179 -25q77 -27 117 -79t46 -126q1 -15 1 -30q0 -61 -19 -132q82 4 163 17 t179 29q2 -16 5 -33t3 -33t-8 -29t-28 -19l-354 -78q-2 0 -11 -28t-22 -70t-27 -93t-29 -100t-27 -88t-18 -57q-2 -11 -2 -20q0 -39 39 -51q27 -8 62 -8q28 0 60 5q73 12 152 41t127 63q34 2 48 -23t18 -53q-22 -52 -75 -78t-116 -39t-127 -18t-108 -17h-8q-83 0 -149 40 q-69 42 -79 134q-1 7 -1 15q0 29 11 74q14 57 33 120t40 120t31 87q-18 -4 -62 -11q-31 -5 -63 -5q-14 0 -28 1q-47 3 -89 20t-56 61z" />
<glyph unicode="[" horiz-adv-x="688" d="M10 754q0 88 20 167t64 138t115 94t173 35q40 0 78 -19t38 -59q0 -60 -60 -60q-28 0 -45 12t-43 18q-106 -24 -161 -101t-71 -183t3 -227t61 -233t100 -204t122 -138q36 0 69 9t66 20t65 20t66 9q0 -36 -33 -67t-78 -54t-92 -35t-75 -12q-64 0 -117 55t-95 141t-74 190 t-53 201t-32 174t-11 109z" />
<glyph unicode="\" horiz-adv-x="662" d="M82 1088q-14 28 3 43t71 25l510 -1084q0 -10 -4 -27t-12 -33t-21 -29t-31 -17z" />
<glyph unicode="]" horiz-adv-x="858" d="M18 1020v74q0 12 39 18t87 9t90 3h48q110 0 184 -48t122 -124t76 -171t50 -189q4 -20 13 -64t21 -101t25 -121t25 -123t21 -107t13 -72q0 -14 1 -34t0 -42t-8 -41t-23 -31q-112 -54 -175 -84t-93 -44t-39 -16t-13 -2q-6 4 -16 12t-19 17t-16 17t-7 10q-18 46 5 70t67 38 t97 23t94 24t61 40t-4 71q-26 78 -46 196t-49 250t-75 263t-120 235q-6 4 -21 12t-59 15t-128 12t-228 5z" />
<glyph unicode="^" horiz-adv-x="690" d="M143 557q3 39 44 106t145 165q44 -18 106 -53t108 -79t61 -93t-33 -97l-218 190l-144 -196q-26 -10 -49 4t-20 53z" />
<glyph unicode="_" horiz-adv-x="998" d="M56 -12v120q96 2 206 7t224 8t227 6t217 3q0 -72 -17 -101t-53 -35t-92 0t-134 4q-22 -2 -67 -3t-102 -2t-120 -2t-120 -2t-102 -2t-67 -1z" />
<glyph unicode="`" horiz-adv-x="276" d="M64 1126q0 70 23 80t51 -18q14 -14 35 -55t57 -121q-4 -10 -10 -22t-15 -21t-19 -11t-24 8q-6 4 -14 10t-19 22t-27 46t-38 82z" />
<glyph unicode="a" d="M32 300q0 92 27 204t83 210t138 164t194 66q36 0 67 -43t55 -111t42 -151t30 -165t18 -152t6 -112q2 -14 2 -27q0 -25 -8 -44q-12 -29 -31 -41t-40 -2t-35 50q0 30 -2 80t-7 107t-17 115t-34 100q-4 -20 -18 -62t-29 -89t-30 -89t-23 -60q-12 -30 -30 -73t-44 -82 t-62 -67t-84 -28q-56 0 -89 32t-51 78t-23 99t-5 93zM140 308q4 -130 28 -161q11 -15 25 -15q15 0 31 18q32 34 68 115t67 175t53 183t24 139q-4 2 -18 3t-18 1q-74 0 -124 -52t-80 -125t-43 -151t-13 -130z" />
<glyph unicode="b" horiz-adv-x="864" d="M50 1154q38 42 63 42q4 0 7 -1q26 -7 48 -85q2 -18 8 -62t13 -101t14 -121t14 -121t12 -101t7 -62q22 50 55 109t76 109t95 83t116 33q72 0 119 -35t74 -89t38 -119t11 -127q0 -72 -20 -149t-61 -141t-102 -105t-145 -41q-72 0 -146 13t-146 25q-14 4 -30 72t-33 172 t-32 228t-28 239t-20 206t-7 129zM325 288q3 -54 15 -88q6 -6 22 -9t34 -6t35 -4t23 -1q72 0 121 31t79 79t43 108t13 120q0 28 -1 70t-11 81t-32 66t-66 27q-64 -6 -112 -40t-81 -85t-52 -113t-26 -122q-5 -42 -5 -81q0 -17 1 -33z" />
<glyph unicode="c" horiz-adv-x="616" d="M23 516v8q0 68 17 129q18 65 59 113t117 58h6q24 0 59 -14q39 -16 76 -43t65 -61t32 -68q3 -15 3 -30q0 -19 -5 -36q-8 -30 -54 -34q-22 -4 -36 19t-30 51t-36 50t-52 18q-46 -6 -70 -41t-34 -80q-8 -38 -8 -76v-16q2 -47 6 -77q4 -28 17 -74t36 -90t56 -73 q27 -24 61 -24q7 0 14 1h5q31 0 59 21q30 23 56 56t47 69t35 58q12 20 30 18t31 -16t19 -36t-6 -42q-12 -24 -38 -67t-60 -87t-72 -79t-76 -39q-15 -2 -30 -2q-57 0 -101 32q-55 40 -94 104t-62 138t-31 132q-10 58 -11 130z" />
<glyph unicode="d" horiz-adv-x="780" d="M32 136q0 110 35 197t87 154t114 115t114 81t88 52t38 27q0 4 -4 32t-10 66t-10 82q-3 29 -3 56q0 13 1 25q2 37 14 61t38 24q16 0 32 -8t20 -30q30 -222 54 -381t40 -271t27 -182t18 -112t9 -64t2 -36q-6 -24 -23 -35t-36 -7t-36 26t-25 64l-72 362q-8 -38 -25 -94 t-42 -116t-57 -120t-72 -108t-86 -77t-98 -29q-50 0 -77 25t-39 62t-14 80t-2 79zM136 30q84 0 142 58t95 140t54 174t17 160q-84 0 -142 -59t-95 -143t-54 -175t-17 -155z" />
<glyph unicode="e" horiz-adv-x="586" d="M-60 114q12 28 27 42t33 31t35 48t31 91q2 12 7 66t11 115t10 115t6 66q2 16 10 58t24 86t39 78t55 34q26 0 46 -11t44 -27q59 -67 59 -147q0 -82 -31 -170q-30 -85 -72 -167t-64 -150q0 -58 14 -95t72 -37q78 0 143 33t133 81q2 -4 6 -27t4 -27q0 -44 -31 -76t-76 -53 t-93 -31t-84 -10q-34 0 -62 2t-53 13t-46 35t-37 66q-26 -22 -38 -35t-20 -22t-17 -15t-27 -14q-28 0 -50 11t-8 43zM196 594q0 -22 3 -39t9 -25q10 4 35 42t33 84q3 18 3 34q0 26 -8 48q-13 36 -21 38q-16 4 -27 -23t-19 -65q-4 -22 -6 -47t-2 -47z" />
<glyph unicode="f" horiz-adv-x="770" d="M0 472q0 64 25 91t63 38t82 18t84 33q-2 22 -6 56t-7 70t-6 69t-1 55q2 30 6 80t17 97t42 82t81 35q80 -16 125 -65t61 -104q11 -38 11 -73q0 -15 -2 -29q-7 -47 -31 -57q-14 26 -33 59t-41 57t-45 35t-45 -7q-24 -44 -30 -93q-4 -37 -4 -72v-24q2 -47 7 -86t3 -63 q62 12 110 30t91 38t90 40t111 36l38 -94l-416 -212q-6 -34 -6 -69t6 -70q12 -71 32 -145t38 -148t22 -148q0 -2 -1 -3t-1 -5v-8q-4 -4 -14 -15t-23 -19t-31 -11t-36 9q-40 218 -62 338t-31 178t-11 70t-4 12q-22 0 -46 -7t-47 -16t-47 -16t-46 -7h-20t-24 4t-20 12t-8 24z " />
<glyph unicode="g" horiz-adv-x="762" d="M29 246v16q0 125 45 236q48 118 146 198t246 84q8 0 29 -3t45 -9t49 -17t45 -27q18 -78 40 -173t39 -196t24 -203q3 -38 3 -74q0 -62 -8 -120q-12 -92 -48 -167t-104 -123q-56 0 -75 34t-19 86q0 24 13 36t31 21t37 18t31 29q4 46 8 122q3 51 3 103q0 26 -1 53 q-2 80 -12 153t-34 113q-26 -74 -68 -163t-101 -160t-135 -107q-41 -20 -88 -20q-38 0 -80 14q-58 112 -61 246zM124 218q0 -20 3 -40t11 -37t23 -27t37 -10q38 0 75 26t70 67t61 93t48 103t31 96t11 75v21t-3 30t-12 27t-27 12q-76 0 -136 -44t-103 -110t-66 -142t-23 -140 z" />
<glyph unicode="h" horiz-adv-x="942" d="M18 1124q39 12 68 12q30 0 48 -13q36 -25 46 -83q4 -26 12 -82t17 -126t19 -149t18 -149t15 -126t11 -82q40 72 72 163t73 173t101 141t154 69q46 0 81 -44t60 -114t42 -155t26 -166t11 -148q1 -34 1 -59t-1 -42q0 -18 -13 -29t-29 -12t-29 7t-15 28q-18 130 -28 206 t-16 120t-10 68l-8 48q-2 6 -8 33t-19 56t-33 48t-50 7q-54 -22 -95 -84t-74 -143t-60 -169t-51 -162t-49 -122t-53 -48q-38 0 -55 46t-23 108t-7 123t-3 89q-22 194 -50 390t-96 372z" />
<glyph unicode="i" horiz-adv-x="310" d="M19 937q-3 25 14 55t49 52q36 16 61 16q15 0 27 -5q32 -15 37 -46q1 -6 1 -12q0 -26 -18 -52q-22 -33 -72 -45q-25 -6 -43.5 -6t-29.5 6q-23 12 -26 37zM92 632q0 42 12 68t30 29t38 -21t36 -82q0 -16 7 -70t17 -124t22 -147t20 -139t11 -100t-3 -28q2 -6 -7 -18t-23 -21 t-29 -10t-25 19q-4 16 -12 60t-19 104t-23 129t-23 135t-19 123t-10 93z" />
<glyph unicode="j" horiz-adv-x="508" d="M16 -16q0 18 7 29t33 23q42 -66 78 -107t100 -41q42 0 65 24t34 59t13 74t2 69q0 92 -20 176t-44 158t-44 135t-20 105q-4 18 3 32t19 21t24 2t20 -27q20 -42 53 -124t64 -183t50 -209q12 -71 12 -136q0 -34 -3 -67q-10 -95 -56 -164t-146 -91q-48 0 -92 19t-78 51 t-54 76t-20 96zM52 944q6 52 27 70t46 13t48 -26t34 -45t4 -43t-43 -21h-35t-40 4t-32 15t-9 33z" />
<glyph unicode="k" horiz-adv-x="954" d="M16 1094q12 0 30 -1t35 -6t31 -14t20 -27q4 -28 12 -85t18 -129t20 -150t19 -149t17 -126t12 -79q76 0 116 48t73 116t74 141t121 125q18 -2 28 -19t15 -40t4 -47t-7 -36l-182 -254q38 -16 85 -16q17 0 36 2q69 8 140 27t136 39t109 20q0 -2 16 -12t28 -24t14 -29 t-24 -29l-714 -176q-1 -9 -1 -21q0 -24 3 -60q2 -30 2 -60q0 -22 -1 -45q-3 -52 -21 -90t-62 -38q-34 0 -55 13q-18 11 -18 48q0 7 1 15q-2 126 -23 278t-45 309t-43 307t-19 274z" />
<glyph unicode="l" horiz-adv-x="324" d="M16 1016q2 20 12 48t25 45t34 16t39 -37q4 -34 12 -114t19 -179t24 -206t24 -196t19 -149t10 -64h64q0 -24 -2 -55t-11 -59t-30 -47t-57 -19q-4 -1 -8 -1q-24 0 -39 40q-17 47 -27 128t-16 188t-16 222t-28 229t-48 210z" />
<glyph unicode="m" horiz-adv-x="1386" d="M34 816q0 6 8 19t17 26t19 23t16 12q30 -14 48 -41t30 -58t21 -65t21 -64t29 -51t45 -29q4 20 16 70t33 104t52 97t73 49q54 -2 87 -41t54 -98t34 -125t29 -122q48 46 75 112t57 129t73 110t123 57q60 -16 94 -65t55 -120t34 -157t30 -172t43 -168t74 -144q28 -36 28 -59 t-16 -33t-45 -8t-58 12t-54 27t-35 41q-10 32 -19 99t-19 148t-23 164t-30 150t-40 104q-18 29 -41 29q-6 0 -12 -2q-34 -30 -62 -86t-51 -125t-42 -141t-36 -131t-33 -98t-32 -41q-18 -2 -31 5t-27 29q-4 24 -18 85t-31 129t-32 130t-23 86q0 2 -4 20t-13 38t-21 36t-30 14 q-4 -2 -11 -4t-9 -4q-34 -74 -48 -155t-16 -166v-38q0 -66 5 -131q7 -84 13 -164l-146 -16q-2 60 -21 133t-44 150t-55 153t-54 141t-40 115q-14 44 -14 70v6z" />
<glyph unicode="n" horiz-adv-x="904" d="M10 854q2 18 15 28t31 15t38 7t34 4l46 -304q10 32 29 88t48 111t68 96t91 41h4q58 0 111 -52q55 -54 103 -139t89 -189t71 -204t49 -184t25 -126q-24 -4 -40 -16t-29 -12t-25 20t-26 80q-22 60 -43 130t-41 142t-42 141t-49 125t-58 93t-71 45q-36 0 -62 -32t-44 -80 t-29 -106t-18 -111t-10 -94t-3 -57v-57t1 -88t2 -88t3 -57q-4 -10 -30 -23t-38 -13q-8 0 -23 12t-17 22q-22 206 -60 417t-100 415z" />
<glyph unicode="o" d="M56 472q6 16 11 52t10 80t11 92t16 88t25 64t35 24q86 0 182 -23t176 -71t133 -124t53 -182q0 -84 -30 -168t-84 -153t-128 -112t-162 -43q-76 0 -125 54t-78 130t-39 157q-7 58 -7 102q0 18 1 33zM158 418q0 -30 5 -85t20 -108t45 -89q25 -29 64 -29q9 0 18 1 q66 12 115 46t81 82t48 106t16 116q0 120 -68 195t-194 75q-50 0 -80 -35t-45 -85t-20 -102t-5 -88z" />
<glyph unicode="p" horiz-adv-x="816" d="M44 572q-11 30 -11 57q0 53 44 92q67 59 213 65h11q60 0 135 -20q82 -22 158 -68t133 -114t69 -154q1 -8 1 -16q0 -41 -25 -86q-30 -54 -77 -100t-103 -78t-102 -34q-22 -9 -46 -9q-13 0 -28 3q-40 8 -67 30t-31 54v6q0 29 32 58q24 2 47 -16t51 -18q22 2 65 25t83 56 t67 72q19 27 19 51q0 10 -4 20q-50 84 -133 131t-165 62q-37 7 -71 7q-40 0 -74 -10q-63 -18 -69 -62q62 -204 105 -343t72 -227t45 -135t24 -68t10 -25t2 -8q16 -38 8 -62t-26 -34t-40 -7t-34 17q-38 74 -77 192t-76 247t-72 250t-63 199z" />
<glyph unicode="q" horiz-adv-x="884" d="M52 142q-5 33 -5 66q0 74 24 153q35 115 104 210t163 158t196 65q14 0 43 -2t64 -22t73 -65t74 -131q2 -76 14 -197t29 -250t36 -250t35 -197q-14 -40 -48 -40q-16 0 -36 8t-24 30l-110 638q-62 -56 -109 -104t-94 -83t-103 -55t-136 -22h-52t-59 7t-51 26t-28 57z M180 152q80 2 163 35t147 90t100 132q26 54 26 115q0 23 -4 48q-2 16 -5 35t-11 36t-22 28t-38 11q-86 -2 -157 -56t-119 -134t-70 -172q-14 -60 -14 -112q0 -29 4 -56z" />
<glyph unicode="r" d="M40 712q-4 28 4 50t40 26q30 2 42 -19t28 -55q6 -12 17 -42t24 -64t24 -64t15 -42q22 20 38 50t32 65t34 72t46 70t68 58t98 37h44t44 -6t35 -20t17 -40q-118 -38 -185 -109t-101 -155t-43 -171t-12 -159t-8 -118t-29 -48h-4q-32 0 -60 32q-16 68 -45 150t-60 169 t-60 173t-43 160z" />
<glyph unicode="s" horiz-adv-x="794" d="M58 696q-4 15 -4 29q0 25 13 49q21 38 62 70t94 52t104 24q9 1 18 1q40 0 74 -15q41 -18 57 -62q-162 -18 -230 -43q-70 -26 -70 -57q0 -29 50 -63q52 -35 132 -74t174 -82t176 -89q44 -30 60 -77q9 -25 8 -52q0 -23 -6 -48q-14 -53 -57 -107t-117 -98q-125 -69 -242 -69 q-12 0 -24 1q-128 8 -242 124q-14 28 -14 56q0 8 1 16q5 36 22 64t40 43t40 10t20 -36v-8q0 -31 -19 -85q-6 -20 25 -39t81 -30t108 -11t108 20t84 64q32 42 32 112v8q-12 56 -45 87t-79 51t-101 36t-113 42t-115 69t-105 117z" />
<glyph unicode="t" horiz-adv-x="524" d="M-22 634q-2 44 11 52t40 11t68 17t93 68l-34 288q4 46 31 59t49 -25q8 -16 15 -48t11 -73t7 -86t5 -83q62 14 96 24t62 19t62 20t96 31l44 -92l-334 -154q4 -60 16 -141t27 -168t30 -175t25 -164v-14q-4 -6 -14 -16t-24 -19t-32 -12t-38 7q-24 162 -37 286t-23 208 t-20 126t-28 42q-22 0 -37 -4t-28 -8t-28 -7t-37 -5h-20t-24 3t-21 10t-9 23z" />
<glyph unicode="u" horiz-adv-x="720" d="M16 746q-3 7 -3 15q0 21 22 44q29 31 69 41q20 -36 42 -113l48 -168t58 -180t72 -149t89 -77q11 -4 24 -4q40 0 87 43q22 38 36 131t16 204v37q0 93 -8 186q-10 112 -34 188q12 14 29 12t34 -14t30 -32t15 -38q24 -58 36 -136t14 -161v-30q0 -68 -7 -138q-9 -85 -28 -158 t-49 -130t-70 -85q-39 -15 -74.5 -15t-68.5 15q-65 30 -118 96t-94 156t-73 179t-55 165t-39 116z" />
<glyph unicode="v" horiz-adv-x="670" d="M28 758q76 -26 123 -91t85 -145t78 -163t104 -143l106 704q26 10 43 2t27 -26t16 -41t8 -41q0 -8 3 -35t3 -37q-2 -24 -8 -73t-13 -111t-16 -130t-18 -130t-15 -111t-10 -73q0 -20 -11 -48t-29 -47t-43 -20t-51 31q-52 74 -113 162t-116 183t-97 193t-56 190z" />
<glyph unicode="w" horiz-adv-x="1174" d="M44 704q-1 11 -1 21q0 23 6 44q9 29 25 39t38 -5t44 -67q8 -20 28 -64t46 -98t55 -115t55 -116t46 -98t28 -65q6 34 21 80t37 88t53 72t71 32h11q51 0 91 -33q44 -37 83 -81t79 -81q36 -33 80 -34q5 0 10 1q22 2 36 14t20 28t8 34t0 30q-2 26 -11 94t-19 143t-20 141 t-14 92q2 14 8 30t17 28t29 18t46 4l78 -580q2 -16 -6 -58t-23 -87t-36 -80t-45 -37q-8 -1 -16 -1q-37 0 -68 16q-38 19 -70 50t-60 67t-56 67t-56 51t-60 18q-32 0 -51 -35t-32 -82t-25 -98t-31 -86t-49 -43q-5 -1 -11 -1q-28 0 -69 31q-62 148 -110 253t-82 178t-58 119 t-38 75t-22 48t-10 39z" />
<glyph unicode="x" horiz-adv-x="690" d="M22 696q2 8 11 21t20 25t22 22t17 12q30 -18 56 -47t52 -60t52 -60t54 -47q46 86 93 195t79 213q36 6 54 4t26 -8t9 -16t1 -22v-7q0 -45 -23 -102q-25 -61 -55 -125t-54 -127q-22 -58 -22 -105v-8l232 -240q20 -16 24 -38t-5 -40t-31 -26t-54 6l-210 214l-154 -356 q-40 -4 -57 15t-18 52v5q0 31 11 72q12 44 29 92t37 97t36 91q-16 38 -56 75t-82 73t-72 73q-24 29 -24 60q0 9 2 17z" />
<glyph unicode="y" horiz-adv-x="862" d="M27 763q-1 45 1 59q14 0 31 2t32 0t29 -9t24 -27q-6 -30 -7 -79v-12q0 -44 6 -94q7 -57 23 -116t42 -107t63 -80t87 -36h6q74 0 118 44q46 46 71 117t34 155t16 156t15 122t32 52q34 2 59 -15t29 -63q4 -18 14 -64t20 -98t19 -98t13 -64q6 -26 13 -93t9 -154v-44 q0 -67 -4 -139q-6 -96 -26 -181t-57 -149t-97 -84q-22 0 -38 13t-27 32t-17 40t-8 37q60 16 96 66t54 118t20 148q1 23 1 46q0 56 -4 112q-5 78 -16 147t-19 117q-14 -62 -37 -135t-60 -136t-90 -105t-129 -44h-6q-65 0 -118 39q-56 41 -98 102t-69 129t-37 120q-4 14 -6 59 t-4 97t-3 97z" />
<glyph unicode="z" horiz-adv-x="788" d="M16 848q-4 34 19 47t51 15q30 3 56 3q43 0 76 -8q54 -13 91 -43t61 -77t42 -107q32 2 59 17t56 36t66 42t91 33q18 6 35 3t26 -12t5 -23t-28 -30l-348 -214q-2 0 -13 -39t-24 -92t-26 -109t-19 -92q-5 -26 -4 -44q0 -30 11 -42q19 -20 58 -12t92 38t111 66t115 69t103 49 q1 -10 1 -19q0 -61 -34 -112q-39 -59 -101 -103t-133 -71t-131 -31q-13 -1 -27 -1q-24 0 -51 4q-42 7 -76 27t-57 52q-21 29 -21 72v8q2 52 16 96t29 85t26 81q8 29 8 62q0 12 -1 24q-16 -2 -45 -12t-57 -16t-50 0t-24 38q-2 26 14 41t41 25t55 18t55 19t40 28t13 47v8 q0 50 -25 76q-27 28 -66 41t-84 20t-77 19z" />
<glyph unicode="{" horiz-adv-x="744" d="M34 328q0 32 36 60t85 51t97 43t72 36q-58 46 -94 97t-56 107t-27 118t-7 132q0 92 30 166t85 126t132 79t169 27q48 -4 80 -35t45 -65t5 -60t-42 -20q-36 0 -71 18t-75 20q-70 0 -118 -27t-78 -72t-43 -101t-13 -112q0 -98 22 -148t54 -73t70 -29t70 -15t54 -34t22 -83 q0 -30 -13 -55t-34 -46t-48 -39t-53 -36q10 -6 22 -19t23 -28t18 -31t7 -26q0 -46 -22 -79t-47 -64t-47 -66t-22 -85q0 -44 25 -63t61 -24t76 -2t68 3q0 -16 -27 -39t-62 -43t-71 -34t-54 -14q-74 6 -110 40t-44 82t6 105t37 110t48 97t41 66q-38 -4 -87 -7t-92 3t-73 26 t-30 62z" />
<glyph unicode="|" horiz-adv-x="1540" d="M24 1124q26 72 70 92t99 3t119 -60t128 -100t125 -117t113 -108q36 90 105 186t159 175t195 131t213 52h16q20 4 48 -4t49 -48t27 -122t-16 -226l-326 -942q-10 -22 -22 -30t-32 -8q-88 0 -197 64t-223 165t-224 227t-200 251t-151 236t-75 183zM234 1020q0 -50 28 -66 t70 -16q8 0 28 1t26 3q-24 38 -67 58t-85 20zM386 724q24 -90 86 -174t144 -155t174 -127t176 -88q0 2 1 9t1 9q0 32 -32 83t-83 110t-115 119t-126 108t-117 79t-89 31q-4 0 -11 -2t-9 -2zM750 762q58 -76 151 -113t187 -37q0 38 -25 66t-54 54t-54 54t-25 66q0 22 15 39 t39 17q44 0 78 -8t70 -17t78 -17t100 -8q0 42 -13 74t-28 61t-28 57t-13 64q26 0 49 -5t44 -11t42 -11t47 -5q0 68 -19 111t-91 43q-84 0 -173 -45t-166 -115t-134 -153t-77 -161zM894 472l182 -218q24 16 41 42t30 57t22 62t15 57q-12 2 -43 7t-66 11t-66 11t-43 7h-20 q-18 0 -28 -5t-24 -31zM1212 638q38 0 57 26t23 60q-4 0 -8 2h-6q-2 0 -2 2q-36 0 -50 -31t-14 -59z" />
<glyph unicode="}" horiz-adv-x="834" d="M82 1210q-8 26 5 60t45 65t80 35q92 0 169 -27t132 -79t85 -126t30 -166q0 -70 -7 -132t-27 -118t-56 -107t-94 -97q24 -16 72 -36t97 -43t85 -51t36 -60q0 -42 -30 -62t-74 -26t-92 -3t-86 7q16 -22 41 -66t48 -97t37 -110t6 -105t-44 -82t-110 -40q-18 0 -54 14t-71 34 t-62 43t-27 39q28 0 68 -3t76 2t61 24t25 63q0 50 -22 85t-47 66t-47 64t-22 79q0 10 7 26t18 31t23 28t22 19q-28 18 -54 36t-47 39t-34 46t-13 55q0 58 22 83t54 34t70 15t70 29t54 73t22 148q0 56 -14 112t-44 101t-78 72t-116 27q-40 -2 -75 -20t-71 -18q-34 -6 -42 20z " />
<glyph unicode="~" horiz-adv-x="854" d="M52 608q0 54 10 115t37 112t73 84t118 33q34 -8 69 -40t71 -69t73 -68t73 -38t73 20t73 109h108q14 -24 -11 -64t-67 -77t-86 -62t-68 -19q-56 0 -105 29t-89 65t-71 65t-51 29q-46 0 -73 -25t-40 -61t-18 -74t-7 -64h-92z" />
<glyph unicode="&#xa1;" horiz-adv-x="270" d="M71 202q-1 -72 4 -122t15 -58q12 0 19 -5t15 -8t22 -1t40 16q2 72 5 167t7 196t7 198t3 173q-4 22 -19 32t-33 10t-33 -10t-19 -32q-4 -28 -10 -92t-11 -143t-8 -164t-4 -157zM76 1048q0 -54 25 -83t56 -30t57 25t28 84q0 56 -25 87t-56 33t-57 -26t-28 -90z" />
<glyph unicode="&#xa3;" horiz-adv-x="914" d="M18 550q0 32 8 42t21 9t30 -8t33 -7q0 58 -14 113t-14 115q0 68 12 134t46 118t97 84t163 32q76 0 141 -23t113 -62t75 -92t27 -113q6 -18 2 -52t-18 -60t-36 -33t-48 29q2 66 -7 121t-37 96t-81 64t-139 23q-102 0 -144 -50t-48 -124t10 -157t32 -149h360q0 -4 -2 -17 t-6 -29t-13 -28t-21 -12h-286q38 -92 57 -191t39 -199h414q34 8 61 1t36 -23t-5 -37t-62 -41q-62 0 -150 2t-178 1t-173 -7t-137 -22q-66 0 -66 52q0 28 21 42t46 31t46 44t21 81q0 76 -17 121t-42 71t-54 38t-54 21t-42 19t-17 32z" />
<glyph unicode="&#xa8;" horiz-adv-x="690" d="M66 1082q4 40 28 68t86 36q68 -18 74 -114q0 -54 -25 -74t-77 -20q-58 0 -72 31t-14 73zM420 1082q4 40 28 68t86 36q68 -18 74 -114q0 -54 -25 -74t-77 -20q-58 0 -72 31t-14 73z" />
<glyph unicode="&#xad;" horiz-adv-x="772" d="M73 503q7 25 37 41q132 16 263 26t269 14q24 -6 33 -26t6 -45t-15 -48t-32 -31l-480 -36q-28 0 -50 17t-30 40t-1 48z" />
<glyph unicode="&#xaf;" horiz-adv-x="868" d="M46 1048q0 18 10 33t24 25q40 -8 120 -9t173 3t187 13t164 21q46 -2 67 -21t19 -41t-23 -39t-59 -15l-614 -32q-36 12 -52 28t-16 34z" />
<glyph unicode="&#xb4;" horiz-adv-x="270" d="M14 1053q0 17 6 27q28 48 41 69t25 36t28 34t52 63q18 10 35 9t29 -11t15 -27t-9 -41l-148 -204q-26 -12 -42 -6t-24 20t-8 31z" />
<glyph unicode="&#xb8;" horiz-adv-x="422" d="M60 33q12 33 37 33t48 -26t17 -64q30 -10 74 -22t82 -33t60 -57t8 -92q0 -28 -23 -49t-57 -34t-72 -19t-68 -6q-38 8 -56 26t-21 37t6 35t27 20q110 -26 146 -11t20 45t-75 62t-137 42q-28 80 -16 113z" />
<glyph unicode="&#xbf;" horiz-adv-x="828" d="M42 182q-10 20 9 67t58 108t92 130t112 135t117 121t106 89q16 22 43 17t47 -24t23 -44t-27 -47q-12 -16 -50 -53t-88 -84t-104 -100t-99 -105t-75 -98t-32 -78q0 -46 25 -61t67 -15q140 0 262 50t230 134q22 -10 31 -22t9 -34q-14 -56 -75 -103t-144 -79t-176 -47 t-172 -6t-132 45t-57 104zM468 1090q0 52 27 72t58 17t57 -26t24 -57q-6 -38 -30 -59t-52 -23t-53 16t-31 60z" />
<glyph unicode="&#xc0;" horiz-adv-x="788" d="M2 994q-2 20 5 31t31 27q28 -16 49 -46t35 -64t23 -70t15 -62q4 132 74 250q28 48 61 80t68 42t71 -6t72 -66q54 -76 81 -159t41 -170t20 -177t17 -176t33 -168t66 -156q2 -32 -20 -42t-74 -14q-42 60 -67 136t-39 158t-20 165t-10 155q-28 4 -76 -17t-94 -48t-81 -50 t-37 -21l24 -504q2 -22 -15 -32t-40 -11t-44 7t-29 22l-22 470q0 34 -15 107t-34 153t-38 152t-31 104zM246 676q14 14 53 30t81 36t75 44t33 54q-2 20 -8 55t-18 68t-31 55t-47 20q-36 -4 -62 -50t-44 -105t-26 -118t-6 -89zM284 1426q0 70 23 80t51 -18q14 -14 35 -55 t57 -121q-4 -10 -10 -22t-15 -21t-19 -11t-24 8q-6 4 -14 10t-19 22t-27 46t-38 82z" />
<glyph unicode="&#xc1;" horiz-adv-x="794" d="M2 994q-2 20 5 31t31 27q28 -16 49 -46t35 -64t23 -70t15 -62q4 132 74 250q28 48 61 80t68 42t71 -6t72 -66q54 -76 81 -159t41 -170t20 -177t17 -176t33 -168t66 -156q2 -32 -20 -42t-74 -14q-42 60 -67 136t-39 158t-20 165t-10 155q-28 4 -76 -17t-94 -48t-81 -50 t-37 -21l24 -504q2 -22 -15 -32t-40 -11t-44 7t-29 22l-22 470q0 34 -15 107t-34 153t-38 152t-31 104zM218 1305q0 17 6 27q28 48 41 69t25 36t28 34t52 63q18 10 35 9t29 -11t15 -27t-9 -41l-148 -204q-26 -12 -42 -6t-24 20t-8 31zM246 676q14 14 53 30t81 36t75 44 t33 54q-2 20 -8 55t-18 68t-31 55t-47 20q-36 -4 -62 -50t-44 -105t-26 -118t-6 -89z" />
<glyph unicode="&#xc2;" horiz-adv-x="782" d="M2 994q-2 20 5 31t31 27q28 -16 49 -46t35 -64t23 -70t15 -62q4 132 74 250q28 48 61 80t68 42t71 -6t72 -66q54 -76 81 -159t41 -170t20 -177t17 -176t33 -168t66 -156q2 -32 -20 -42t-74 -14q-42 60 -67 136t-39 158t-20 165t-10 155q-28 4 -76 -17t-94 -48t-81 -50 t-37 -21l24 -504q2 -22 -15 -32t-40 -11t-44 7t-29 22l-22 470q0 34 -15 107t-34 153t-38 152t-31 104zM139 1233q3 39 44 106t145 165q44 -18 106 -53t108 -79t61 -93t-33 -97l-218 190l-144 -196q-26 -10 -49 4t-20 53zM246 676q14 14 53 30t81 36t75 44t33 54 q-2 20 -8 55t-18 68t-31 55t-47 20q-36 -4 -62 -50t-44 -105t-26 -118t-6 -89z" />
<glyph unicode="&#xc3;" horiz-adv-x="782" d="M2 994q-2 20 5 31t31 27q28 -16 49 -46t35 -64t23 -70t15 -62q4 132 74 250q28 48 61 80t68 42t71 -6t72 -66q54 -76 81 -159t41 -170t20 -177t17 -176t33 -168t66 -156q2 -32 -20 -42t-74 -14q-42 60 -67 136t-39 158t-20 165t-10 155q-28 4 -76 -17t-94 -48t-81 -50 t-37 -21l24 -504q2 -22 -15 -32t-40 -11t-44 7t-29 22l-22 470q0 34 -15 107t-34 153t-38 152t-31 104zM8 1180q0 54 10 115t37 112t73 84t118 33q34 -8 69 -40t71 -69t73 -68t73 -38t73 20t73 109h108q14 -24 -11 -64t-67 -77t-86 -62t-68 -19q-56 0 -105 29t-89 65t-71 65 t-51 29q-46 0 -73 -25t-40 -61t-18 -74t-7 -64h-92zM246 676q14 14 53 30t81 36t75 44t33 54q-2 20 -8 55t-18 68t-31 55t-47 20q-36 -4 -62 -50t-44 -105t-26 -118t-6 -89z" />
<glyph unicode="&#xc4;" horiz-adv-x="776" d="M2 994q-2 20 5 31t31 27q28 -16 49 -46t35 -64t23 -70t15 -62q4 132 74 250q28 48 61 80t68 42t71 -6t72 -66q54 -76 81 -159t41 -170t20 -177t17 -176t33 -168t66 -156q2 -32 -20 -42t-74 -14q-42 60 -67 136t-39 158t-20 165t-10 155q-28 4 -76 -17t-94 -48t-81 -50 t-37 -21l24 -504q2 -22 -15 -32t-40 -11t-44 7t-29 22l-22 470q0 34 -15 107t-34 153t-38 152t-31 104zM88 1362q4 40 28 68t86 36q68 -18 74 -114q0 -54 -25 -74t-77 -20q-58 0 -72 31t-14 73zM246 676q14 14 53 30t81 36t75 44t33 54q-2 20 -8 55t-18 68t-31 55t-47 20 q-36 -4 -62 -50t-44 -105t-26 -118t-6 -89zM442 1362q4 40 28 68t86 36q68 -18 74 -114q0 -54 -25 -74t-77 -20q-58 0 -72 31t-14 73z" />
<glyph unicode="&#xc5;" horiz-adv-x="794" d="M2 994q-2 20 5 31t31 27q28 -16 49 -46t35 -64t23 -70t15 -62q4 132 74 250q28 48 61 80t68 42t71 -6t72 -66q54 -76 81 -159t41 -170t20 -177t17 -176t33 -168t66 -156q2 -32 -20 -42t-74 -14q-42 60 -67 136t-39 158t-20 165t-10 155q-28 4 -76 -17t-94 -48t-81 -50 t-37 -21l24 -504q2 -22 -15 -32t-40 -11t-44 7t-29 22l-22 470q0 34 -15 107t-34 153t-38 152t-31 104zM154 1361q-2 37 17 71t53 62t76 42t88 11t90 -29q64 -40 70 -99t-58 -115q-28 -24 -68 -40t-83 -20t-84 7t-69 41q-30 32 -32 69zM246 676q14 14 53 30t81 36t75 44 t33 54q-2 20 -8 55t-18 68t-31 55t-47 20q-36 -4 -62 -50t-44 -105t-26 -118t-6 -89zM252 1392q10 -32 31 -46t48 -12t59 16t64 38q-24 42 -57 54t-64 7t-54 -22t-27 -35z" />
<glyph unicode="&#xc6;" horiz-adv-x="1370" d="M2 994q-2 20 5 31t31 27q28 -16 49 -46t35 -64t23 -70t15 -62q4 132 74 250q28 48 61 80t68 42t71 -6t72 -66q10 -16 18 -29t18 -29q88 4 179 29t177 57t164 63t137 45t97 3t44 -61q-32 -26 -96 -49t-140 -47t-157 -48t-146 -51t-106 -58t-39 -67q0 -118 58 -118 q42 0 81 13t78 30t78 30t79 13q22 0 39 -19t17 -45q2 -28 -28 -46t-75 -32t-98 -30t-98 -41t-76 -64t-31 -101q0 -48 8 -91t26 -76t49 -53t77 -20q44 -4 96 31t100 86t86 106t56 91q20 -22 23 -50t-5 -59t-23 -62t-33 -57q-38 -52 -92 -114t-116 -107t-128 -60t-126 25h-8 q-42 60 -67 136t-39 158t-20 165t-10 155q-28 4 -76 -17t-94 -48t-81 -50t-37 -21l24 -504q2 -22 -15 -32t-40 -11t-44 7t-29 22l-22 470q0 34 -15 107t-34 153t-38 152t-31 104zM246 676q14 14 53 30t81 36t75 44t33 54q-2 20 -8 55t-18 68t-31 55t-47 20q-36 -4 -62 -50 t-44 -105t-26 -118t-6 -89z" />
<glyph unicode="&#xc7;" horiz-adv-x="742" d="M57 593q3 75 14 154t32 156t55 140t82 106t114 57q26 6 54 5t49 -13t33 -36t10 -64q-88 6 -152 -48t-104 -140t-58 -194t-14 -210q4 -66 20 -144t48 -139t80 -89t114 8q30 26 59 58t57 62t53 52t45 27t34 -12t20 -65q-18 -34 -58 -77t-85 -83t-84 -69t-55 -35 q-92 -20 -159 15t-110 103t-66 158t-27 180q-4 62 -1 137zM298 27q12 33 37 33t48 -26t17 -64q30 -10 74 -22t82 -33t60 -57t8 -92q0 -28 -23 -49t-57 -34t-72 -19t-68 -6q-38 8 -56 26t-21 37t6 35t27 20q110 -26 146 -11t20 45t-75 62t-137 42q-28 80 -16 113z" />
<glyph unicode="&#xc8;" horiz-adv-x="942" d="M16 496q0 36 23 77t51 61v380q88 2 180 27t179 58t165 63t139 45t99 4t44 -63q-32 -26 -96 -49t-140 -47t-157 -48t-146 -51t-106 -58t-39 -67q0 -118 58 -118q42 0 81 13t78 30t78 30t79 13q22 0 39 -19t17 -45q2 -28 -28 -46t-75 -32t-98 -30t-98 -41t-76 -64t-31 -101 q0 -48 8 -91t26 -76t49 -53t77 -20q44 -4 96 31t100 86t86 106t56 91q20 -22 23 -50t-5 -59t-23 -62t-33 -57q-22 -30 -62 -75t-87 -87t-95 -73t-86 -31q-72 0 -116 50t-70 120t-37 145t-15 125q-16 -6 -35 -6t-36 7t-29 21t-12 36zM254 1346q0 70 23 80t51 -18 q14 -14 35 -55t57 -121q-4 -10 -10 -22t-15 -21t-19 -11t-24 8q-6 4 -14 10t-19 22t-27 46t-38 82z" />
<glyph unicode="&#xc9;" horiz-adv-x="942" d="M16 496q0 36 23 77t51 61v380q88 2 180 27t179 58t165 63t139 45t99 4t44 -63q-32 -26 -96 -49t-140 -47t-157 -48t-146 -51t-106 -58t-39 -67q0 -118 58 -118q42 0 81 13t78 30t78 30t79 13q22 0 39 -19t17 -45q2 -28 -28 -46t-75 -32t-98 -30t-98 -41t-76 -64t-31 -101 q0 -48 8 -91t26 -76t49 -53t77 -20q44 -4 96 31t100 86t86 106t56 91q20 -22 23 -50t-5 -59t-23 -62t-33 -57q-22 -30 -62 -75t-87 -87t-95 -73t-86 -31q-72 0 -116 50t-70 120t-37 145t-15 125q-16 -6 -35 -6t-36 7t-29 21t-12 36zM350 1199q0 17 6 27q28 48 41 69t25 36 t28 34t52 63q18 10 35 9t29 -11t15 -27t-9 -41l-148 -204q-26 -12 -42 -6t-24 20t-8 31z" />
<glyph unicode="&#xca;" horiz-adv-x="942" d="M16 496q0 36 23 77t51 61v380q88 2 180 27t179 58t165 63t139 45t99 4t44 -63q-32 -26 -96 -49t-140 -47t-157 -48t-146 -51t-106 -58t-39 -67q0 -118 58 -118q42 0 81 13t78 30t78 30t79 13q22 0 39 -19t17 -45q2 -28 -28 -46t-75 -32t-98 -30t-98 -41t-76 -64t-31 -101 q0 -48 8 -91t26 -76t49 -53t77 -20q44 -4 96 31t100 86t86 106t56 91q20 -22 23 -50t-5 -59t-23 -62t-33 -57q-22 -30 -62 -75t-87 -87t-95 -73t-86 -31q-72 0 -116 50t-70 120t-37 145t-15 125q-16 -6 -35 -6t-36 7t-29 21t-12 36zM89 1237q3 39 44 106t145 165 q44 -18 106 -53t108 -79t61 -93t-33 -97l-218 190l-144 -196q-26 -10 -49 4t-20 53z" />
<glyph unicode="&#xcb;" horiz-adv-x="942" d="M16 496q0 36 23 77t51 61v380q88 2 180 27t179 58t165 63t139 45t99 4t44 -63q-32 -26 -96 -49t-140 -47t-157 -48t-146 -51t-106 -58t-39 -67q0 -118 58 -118q42 0 81 13t78 30t78 30t79 13q22 0 39 -19t17 -45q2 -28 -28 -46t-75 -32t-98 -30t-98 -41t-76 -64t-31 -101 q0 -48 8 -91t26 -76t49 -53t77 -20q44 -4 96 31t100 86t86 106t56 91q20 -22 23 -50t-5 -59t-23 -62t-33 -57q-22 -30 -62 -75t-87 -87t-95 -73t-86 -31q-72 0 -116 50t-70 120t-37 145t-15 125q-16 -6 -35 -6t-36 7t-29 21t-12 36zM104 1332q4 40 28 68t86 36 q68 -18 74 -114q0 -54 -25 -74t-77 -20q-58 0 -72 31t-14 73zM458 1332q4 40 28 68t86 36q68 -18 74 -114q0 -54 -25 -74t-77 -20q-58 0 -72 31t-14 73z" />
<glyph unicode="&#xcc;" horiz-adv-x="344" d="M-60 1450q0 70 23 80t51 -18q14 -14 35 -55t57 -121q-4 -10 -10 -22t-15 -21t-19 -11t-24 8q-6 4 -14 10t-19 22t-27 46t-38 82zM18 1104q0 28 23 54t57 26q38 -32 64 -126t45 -217t29 -259t15 -253t6 -199t1 -98q0 -10 -14 -17t-33 -9t-37 2t-24 16q-6 114 -9 248 t-15 275t-36 284t-72 273z" />
<glyph unicode="&#xcd;" horiz-adv-x="344" d="M14 1291q0 17 6 27q28 48 41 69t25 36t28 34t52 63q18 10 35 9t29 -11t15 -27t-9 -41l-148 -204q-26 -12 -42 -6t-24 20t-8 31zM58 1116q0 28 23 54t57 26q38 -32 64 -126t45 -217t29 -259t15 -253t6 -199t1 -98q0 -10 -14 -17t-33 -9t-37 2t-24 16q-6 114 -9 248 t-15 275t-36 284t-72 273z" />
<glyph unicode="&#xce;" horiz-adv-x="344" d="M-145 1231q3 39 44 106t145 165q44 -18 106 -53t108 -79t61 -93t-33 -97l-218 190l-144 -196q-26 -10 -49 4t-20 53zM18 1104q0 28 23 54t57 26q38 -32 64 -126t45 -217t29 -259t15 -253t6 -199t1 -98q0 -10 -14 -17t-33 -9t-37 2t-24 16q-6 114 -9 248t-15 275t-36 284 t-72 273z" />
<glyph unicode="&#xcf;" horiz-adv-x="344" d="M-122 1338q4 40 28 68t86 36q68 -18 74 -114q0 -54 -25 -74t-77 -20q-58 0 -72 31t-14 73zM18 1104q0 28 23 54t57 26q38 -32 64 -126t45 -217t29 -259t15 -253t6 -199t1 -98q0 -10 -14 -17t-33 -9t-37 2t-24 16q-6 114 -9 248t-15 275t-36 284t-72 273zM232 1338 q4 40 28 68t86 36q68 -18 74 -114q0 -54 -25 -74t-77 -20q-58 0 -72 31t-14 73z" />
<glyph unicode="&#xd0;" horiz-adv-x="862" d="M-55 501q7 25 37 41q40 4 79 8t79 8q-28 150 -62 291t-76 257q86 72 179 77t182 -36t169 -118t140 -168t95 -188t33 -179q2 -42 -14 -104t-51 -128t-90 -129t-131 -109q-20 0 -42 3t-40 12t-29 26t-11 43q4 4 50 26t99 67t95 117t38 176q-4 50 -29 121t-65 144t-91 138 t-107 107t-115 50t-111 -36q0 -84 33 -205t63 -253q70 4 130 11t132 11q24 -6 33 -26t6 -45t-15 -48t-32 -31l-218 -24q28 -124 38 -233t10 -185q-12 0 -30 1t-36 5t-32 13t-20 27q-12 88 -24 181t-28 189l-140 -10q-28 0 -50 17t-30 40t-1 48z" />
<glyph unicode="&#xd1;" horiz-adv-x="1082" d="M28 1278q0 54 10 115t37 112t73 84t118 33q34 -8 69 -40t71 -69t73 -68t73 -38t73 20t73 109h108q14 -24 -11 -64t-67 -77t-86 -62t-68 -19q-56 0 -105 29t-89 65t-71 65t-51 29q-46 0 -73 -25t-40 -61t-18 -74t-7 -64h-92zM44 1092q-2 16 9 25t26 14t30 6t23 1 q24 2 57 -40t72 -112t84 -160t93 -183t98 -183t99 -159t96 -110t91 -37q64 20 90 68t23 116t-28 150t-62 168t-78 170t-77 158t-60 131t-26 87q50 4 95 -14t77 -64q36 -72 80 -184t85 -235t74 -240t45 -199q8 -52 -5 -91t-40 -67t-63 -44t-74 -18q-66 -4 -132 33t-128 101 t-119 147t-109 169t-96 167t-80 141q-10 -32 -3 -96t24 -142t39 -163t42 -162t34 -138t14 -89q4 -28 -17 -33t-50 5t-57 34t-34 54z" />
<glyph unicode="&#xd2;" horiz-adv-x="886" d="M36 1030q6 48 21 82t30 43t30 -11t21 -78q10 -74 14 -179t11 -217t22 -221t45 -189t81 -121t131 -19q44 0 99 31t104 83t82 122t33 148q0 92 -33 195t-86 190t-118 143t-127 56q-18 12 -40 0t-44 -34t-41 -46t-34 -38t-24 -9t-7 43q0 62 18 99t46 57t63 26t69 6 q88 0 171 -62t148 -163t105 -228t40 -257q0 -112 -46 -201t-114 -152t-147 -97t-143 -34q-90 0 -153 49t-104 131t-65 189t-35 221t-16 229t-7 213zM136 1404q0 70 23 80t51 -18q14 -14 35 -55t57 -121q-4 -10 -10 -22t-15 -21t-19 -11t-24 8q-6 4 -14 10t-19 22t-27 46 t-38 82z" />
<glyph unicode="&#xd3;" horiz-adv-x="904" d="M36 1030q6 48 21 82t30 43t30 -11t21 -78q10 -74 14 -179t11 -217t22 -221t45 -189t81 -121t131 -19q44 0 99 31t104 83t82 122t33 148q0 92 -33 195t-86 190t-118 143t-127 56q-18 12 -40 0t-44 -34t-41 -46t-34 -38t-24 -9t-7 43q0 62 18 99t46 57t63 26t69 6 q88 0 171 -62t148 -163t105 -228t40 -257q0 -112 -46 -201t-114 -152t-147 -97t-143 -34q-90 0 -153 49t-104 131t-65 189t-35 221t-16 229t-7 213zM212 1309q0 17 6 27q28 48 41 69t25 36t28 34t52 63q18 10 35 9t29 -11t15 -27t-9 -41l-148 -204q-26 -12 -42 -6t-24 20 t-8 31z" />
<glyph unicode="&#xd4;" horiz-adv-x="904" d="M36 1030q6 48 21 82t30 43t30 -11t21 -78q10 -74 14 -179t11 -217t22 -221t45 -189t81 -121t131 -19q44 0 99 31t104 83t82 122t33 148q0 92 -33 195t-86 190t-118 143t-127 56q-18 12 -40 0t-44 -34t-41 -46t-34 -38t-24 -9t-7 43q0 62 18 99t46 57t63 26t69 6 q88 0 171 -62t148 -163t105 -228t40 -257q0 -112 -46 -201t-114 -152t-147 -97t-143 -34q-90 0 -153 49t-104 131t-65 189t-35 221t-16 229t-7 213zM111 1289q3 39 44 106t145 165q44 -18 106 -53t108 -79t61 -93t-33 -97l-218 190l-144 -196q-26 -10 -49 4t-20 53z" />
<glyph unicode="&#xd5;" horiz-adv-x="904" d="M8 1232q0 54 10 115t37 112t73 84t118 33q34 -8 69 -40t71 -69t73 -68t73 -38t73 20t73 109h108q14 -24 -11 -64t-67 -77t-86 -62t-68 -19q-56 0 -105 29t-89 65t-71 65t-51 29q-46 0 -73 -25t-40 -61t-18 -74t-7 -64h-92zM36 1030q6 48 21 82t30 43t30 -11t21 -78 q10 -74 14 -179t11 -217t22 -221t45 -189t81 -121t131 -19q44 0 99 31t104 83t82 122t33 148q0 92 -33 195t-86 190t-118 143t-127 56q-18 12 -40 0t-44 -34t-41 -46t-34 -38t-24 -9t-7 43q0 62 18 99t46 57t63 26t69 6q88 0 171 -62t148 -163t105 -228t40 -257 q0 -112 -46 -201t-114 -152t-147 -97t-143 -34q-90 0 -153 49t-104 131t-65 189t-35 221t-16 229t-7 213z" />
<glyph unicode="&#xd6;" horiz-adv-x="892" d="M36 1030q6 48 21 82t30 43t30 -11t21 -78q10 -74 14 -179t11 -217t22 -221t45 -189t81 -121t131 -19q44 0 99 31t104 83t82 122t33 148q0 92 -33 195t-86 190t-118 143t-127 56q-18 12 -40 0t-44 -34t-41 -46t-34 -38t-24 -9t-7 43q0 62 18 99t46 57t63 26t69 6 q88 0 171 -62t148 -163t105 -228t40 -257q0 -112 -46 -201t-114 -152t-147 -97t-143 -34q-90 0 -153 49t-104 131t-65 189t-35 221t-16 229t-7 213zM68 1378q4 40 28 68t86 36q68 -18 74 -114q0 -54 -25 -74t-77 -20q-58 0 -72 31t-14 73zM422 1378q4 40 28 68t86 36 q68 -18 74 -114q0 -54 -25 -74t-77 -20q-58 0 -72 31t-14 73z" />
<glyph unicode="&#xd8;" horiz-adv-x="892" d="M36 1030q6 48 21 82t30 43t30 -11t21 -78q10 -74 14 -179t11 -217t22 -221t45 -189t81 -121t131 -19q44 0 99 31t104 83t82 122t33 148q0 92 -33 195t-86 190t-118 143t-127 56q-18 12 -40 0t-44 -34t-41 -46t-34 -38t-24 -9t-7 43q0 62 18 99t46 57t63 26t69 6 q88 0 171 -62t148 -163t105 -228t40 -257q0 -112 -46 -201t-114 -152t-147 -97t-143 -34q-90 0 -153 49t-104 131t-65 189t-35 221t-16 229t-7 213zM70 29q-9 13 2 32l600 1069q18 14 38.5 16t38 -7t26.5 -29t6 -50l-597 -1050q-21 -7 -44 -7t-42 6.5t-28 19.5z" />
<glyph unicode="&#xd9;" horiz-adv-x="782" d="M26 932q-4 34 21 48t53 16q32 2 56 -36t43 -100t35 -142t34 -162t39 -159t51 -133t70 -84t96 -12q30 8 51 64t35 143t22 194t12 216t7 211t5 178q2 0 8 1t10 1q26 2 41 -2t22 -12t9 -21t4 -27q2 -36 4 -125t-1 -203t-14 -239t-35 -231t-63 -181t-97 -87q-52 -22 -98 -4 t-84 55t-64 82t-36 77q-10 28 -27 84t-38 124t-44 143t-46 140t-44 115t-37 68zM310 1272q0 70 23 80t51 -18q14 -14 35 -55t57 -121q-4 -10 -10 -22t-15 -21t-19 -11t-24 8q-6 4 -14 10t-19 22t-27 46t-38 82z" />
<glyph unicode="&#xda;" horiz-adv-x="782" d="M26 932q-4 34 21 48t53 16q32 2 56 -36t43 -100t35 -142t34 -162t39 -159t51 -133t70 -84t96 -12q30 8 51 64t35 143t22 194t12 216t7 211t5 178q2 0 8 1t10 1q26 2 41 -2t22 -12t9 -21t4 -27q2 -36 4 -125t-1 -203t-14 -239t-35 -231t-63 -181t-97 -87q-52 -22 -98 -4 t-84 55t-64 82t-36 77q-10 28 -27 84t-38 124t-44 143t-46 140t-44 115t-37 68zM252 1199q0 17 6 27q28 48 41 69t25 36t28 34t52 63q18 10 35 9t29 -11t15 -27t-9 -41l-148 -204q-26 -12 -42 -6t-24 20t-8 31z" />
<glyph unicode="&#xdb;" horiz-adv-x="794" d="M26 932q-4 34 21 48t53 16q32 2 56 -36t43 -100t35 -142t34 -162t39 -159t51 -133t70 -84t96 -12q30 8 51 64t35 143t22 194t12 216t7 211t5 178q2 0 8 1t10 1q26 2 41 -2t22 -12t9 -21t4 -27q2 -36 4 -125t-1 -203t-14 -239t-35 -231t-63 -181t-97 -87q-52 -22 -98 -4 t-84 55t-64 82t-36 77q-10 28 -27 84t-38 124t-44 143t-46 140t-44 115t-37 68zM57 1169q3 39 44 106t145 165q44 -18 106 -53t108 -79t61 -93t-33 -97l-218 190l-144 -196q-26 -10 -49 4t-20 53z" />
<glyph unicode="&#xdc;" horiz-adv-x="788" d="M26 932q-4 34 21 48t53 16q32 2 56 -36t43 -100t35 -142t34 -162t39 -159t51 -133t70 -84t96 -12q30 8 51 64t35 143t22 194t12 216t7 211t5 178q2 0 8 1t10 1q26 2 41 -2t22 -12t9 -21t4 -27q2 -36 4 -125t-1 -203t-14 -239t-35 -231t-63 -181t-97 -87q-52 -22 -98 -4 t-84 55t-64 82t-36 77q-10 28 -27 84t-38 124t-44 143t-46 140t-44 115t-37 68zM92 1228q4 40 28 68t86 36q68 -18 74 -114q0 -54 -25 -74t-77 -20q-58 0 -72 31t-14 73zM446 1228q4 40 28 68t86 36q68 -18 74 -114q0 -54 -25 -74t-77 -20q-58 0 -72 31t-14 73z" />
<glyph unicode="&#xdd;" horiz-adv-x="1042" d="M32 1049q-8 49 0 90t50 53q58 4 76 -28t20 -86t-1 -122t11 -136q10 -48 21 -99t32 -93t58 -69t97 -25q114 2 194 63t127 153t62 202t-1 212h38t36 -4t30 -18t20 -40q32 -164 53 -329t39 -333q6 -30 9 -100t-6 -147t-34 -140t-75 -77q-48 0 -65 18t-25 52q-4 18 13 65 t35 114t29 150t-7 171q-2 8 -6 29t-10 45t-10 44t-6 28q-20 -52 -65 -106t-107 -98t-135 -73t-147 -31q-62 -2 -107 23t-77 67t-54 95t-36 108t-23 107t-17 92q-2 26 -15 75t-21 98zM360 1199q0 17 6 27q28 48 41 69t25 36t28 34t52 63q18 10 35 9t29 -11t15 -27t-9 -41 l-148 -204q-26 -12 -42 -6t-24 20t-8 31z" />
<glyph unicode="&#xde;" horiz-adv-x="840" d="M66 990q44 48 70 41t48 -85q4 -26 9 -82t9 -118t8 -119t8 -83q22 50 55 109t76 109t95 83t116 33q72 0 119 -35t74 -89t38 -119t11 -127q0 -72 -20 -149t-61 -141t-102 -105t-145 -41q-46 0 -94 5t-94 15l18 -228q-10 -34 -46 -37t-68 49zM307 290q3 -54 15 -88 q6 -6 22 -9t34 -6t35 -4t23 -1q72 0 121 31t79 79t43 108t13 120q0 28 -1 70t-11 81t-32 66t-66 27q-64 -6 -112 -40t-81 -85t-52 -113t-26 -122t-4 -114z" />
<glyph unicode="&#xdf;" horiz-adv-x="834" d="M92 676q-2 124 11 224t47 154q26 58 66 85t85 30t90 -16t79 -51q30 -32 51 -89t29 -118t1 -118t-33 -87q58 12 109 -8t89 -61t60 -97t22 -116q0 -96 -25 -162t-70 -108t-105 -66t-128 -36l-16 130q50 10 90 26t70 46t50 77t26 117q-2 30 -10 64t-38 57t-91 26t-171 -27 q-18 -16 -33 -12t-22 21t-3 45t26 62q0 20 16 31t34 33t35 62t21 118q-30 82 -61 119t-61 40t-56 -23t-46 -69t-33 -98t-13 -109q-8 -134 9 -282t43 -278t53 -225t39 -125q10 -24 -3 -40t-32 -22t-39 -4t-24 12q-20 44 -44 139t-44 216t-34 255t-16 258z" />
<glyph unicode="&#xe0;" d="M32 300q0 92 27 204t83 210t138 164t194 66q36 0 67 -43t55 -111t42 -151t30 -165t18 -152t6 -112q6 -42 -6 -71t-31 -41t-40 -2t-35 50q0 30 -2 80t-7 107t-17 115t-34 100q-4 -20 -18 -62t-29 -89t-30 -89t-23 -60q-12 -30 -30 -73t-44 -82t-62 -67t-84 -28 q-56 0 -89 32t-51 78t-23 99t-5 93zM140 308q4 -130 28 -161t56 3t68 115t67 175t53 183t24 139q-4 2 -18 3t-18 1q-74 0 -124 -52t-80 -125t-43 -151t-13 -130zM290 1160q0 70 23 80t51 -18q14 -14 35 -55t57 -121q-4 -10 -10 -22t-15 -21t-19 -11t-24 8q-6 4 -14 10 t-19 22t-27 46t-38 82z" />
<glyph unicode="&#xe1;" d="M32 300q0 92 27 204t83 210t138 164t194 66q36 0 67 -43t55 -111t42 -151t30 -165t18 -152t6 -112q6 -42 -6 -71t-31 -41t-40 -2t-35 50q0 30 -2 80t-7 107t-17 115t-34 100q-4 -20 -18 -62t-29 -89t-30 -89t-23 -60q-12 -30 -30 -73t-44 -82t-62 -67t-84 -28 q-56 0 -89 32t-51 78t-23 99t-5 93zM140 308q4 -130 28 -161t56 3t68 115t67 175t53 183t24 139q-4 2 -18 3t-18 1q-74 0 -124 -52t-80 -125t-43 -151t-13 -130zM242 1053q0 17 6 27q28 48 41 69t25 36t28 34t52 63q18 10 35 9t29 -11t15 -27t-9 -41l-148 -204 q-26 -12 -42 -6t-24 20t-8 31z" />
<glyph unicode="&#xe2;" d="M32 300q0 92 27 204t83 210t138 164t194 66q36 0 67 -43t55 -111t42 -151t30 -165t18 -152t6 -112q6 -42 -6 -71t-31 -41t-40 -2t-35 50q0 30 -2 80t-7 107t-17 115t-34 100q-4 -20 -18 -62t-29 -89t-30 -89t-23 -60q-12 -30 -30 -73t-44 -82t-62 -67t-84 -28 q-56 0 -89 32t-51 78t-23 99t-5 93zM119 1057q3 39 44 106t145 165q44 -18 106 -53t108 -79t61 -93t-33 -97l-218 190l-144 -196q-26 -10 -49 4t-20 53zM140 308q4 -130 28 -161t56 3t68 115t67 175t53 183t24 139q-4 2 -18 3t-18 1q-74 0 -124 -52t-80 -125t-43 -151 t-13 -130z" />
<glyph unicode="&#xe3;" d="M-44 966q0 54 10 115t37 112t73 84t118 33q34 -8 69 -40t71 -69t73 -68t73 -38t73 20t73 109h108q14 -24 -11 -64t-67 -77t-86 -62t-68 -19q-56 0 -105 29t-89 65t-71 65t-51 29q-46 0 -73 -25t-40 -61t-18 -74t-7 -64h-92zM32 300q0 92 27 204t83 210t138 164t194 66 q36 0 67 -43t55 -111t42 -151t30 -165t18 -152t6 -112q6 -42 -6 -71t-31 -41t-40 -2t-35 50q0 30 -2 80t-7 107t-17 115t-34 100q-4 -20 -18 -62t-29 -89t-30 -89t-23 -60q-12 -30 -30 -73t-44 -82t-62 -67t-84 -28q-56 0 -89 32t-51 78t-23 99t-5 93zM140 308 q4 -130 28 -161t56 3t68 115t67 175t53 183t24 139q-4 2 -18 3t-18 1q-74 0 -124 -52t-80 -125t-43 -151t-13 -130z" />
<glyph unicode="&#xe4;" d="M32 300q0 92 27 204t83 210t138 164t194 66q36 0 67 -43t55 -111t42 -151t30 -165t18 -152t6 -112q6 -42 -6 -71t-31 -41t-40 -2t-35 50q0 30 -2 80t-7 107t-17 115t-34 100q-4 -20 -18 -62t-29 -89t-30 -89t-23 -60q-12 -30 -30 -73t-44 -82t-62 -67t-84 -28 q-56 0 -89 32t-51 78t-23 99t-5 93zM116 1122q4 40 28 68t86 36q68 -18 74 -114q0 -54 -25 -74t-77 -20q-58 0 -72 31t-14 73zM140 308q4 -130 28 -161t56 3t68 115t67 175t53 183t24 139q-4 2 -18 3t-18 1q-74 0 -124 -52t-80 -125t-43 -151t-13 -130zM470 1122q4 40 28 68 t86 36q68 -18 74 -114q0 -54 -25 -74t-77 -20q-58 0 -72 31t-14 73z" />
<glyph unicode="&#xe5;" d="M32 300q0 92 27 204t83 210t138 164t194 66q36 0 67 -43t55 -111t42 -151t30 -165t18 -152t6 -112q6 -42 -6 -71t-31 -41t-40 -2t-35 50q0 30 -2 80t-7 107t-17 115t-34 100q-4 -20 -18 -62t-29 -89t-30 -89t-23 -60q-12 -30 -30 -73t-44 -82t-62 -67t-84 -28 q-56 0 -89 32t-51 78t-23 99t-5 93zM140 308q4 -130 28 -161t56 3t68 115t67 175t53 183t24 139q-4 2 -18 3t-18 1q-74 0 -124 -52t-80 -125t-43 -151t-13 -130zM146 1069q-2 37 17 71t53 62t76 42t88 11t90 -29q64 -40 70 -99t-58 -115q-28 -24 -68 -40t-83 -20t-84 7 t-69 41q-30 32 -32 69zM244 1100q10 -32 31 -46t48 -12t59 16t64 38q-24 42 -57 54t-64 7t-54 -22t-27 -35z" />
<glyph unicode="&#xe6;" horiz-adv-x="1000" d="M32 300q0 70 18 157t51 169t79 152t103 107t123 33t138 -68q28 70 67 83t107 -33q60 -68 59 -150t-31 -167t-72 -167t-64 -150q0 -58 14 -95t72 -37q78 0 143 33t133 81q2 -4 6 -27t4 -27q0 -44 -31 -76t-76 -53t-93 -31t-84 -10q-104 0 -149 66t-49 180q-12 -26 -44 -72 t-73 -90t-89 -77t-94 -33q-56 0 -89 32t-51 78t-23 99t-5 93zM140 308q6 -118 34 -152t66 -14t81 81t80 133t62 142t25 108q-24 110 -59 150t-73 31t-75 -59t-68 -120t-51 -150t-22 -150zM596 588q0 -22 3 -39t9 -25q10 4 35 42t33 84t-5 82t-21 38q-16 4 -27 -23t-19 -65 q-4 -22 -6 -47t-2 -47z" />
<glyph unicode="&#xe7;" horiz-adv-x="610" d="M23 516q-1 72 17 137t59 113t117 58q26 2 65 -14t76 -43t65 -61t32 -68q6 -36 -2 -66t-54 -34q-22 -4 -36 19t-30 51t-36 50t-52 18q-46 -6 -70 -41t-34 -80t-8 -92t6 -77q4 -28 17 -74t36 -90t56 -73t75 -23q34 -2 64 21t56 56t47 69t35 58q12 20 30 18t31 -16t19 -36 t-6 -42q-12 -24 -38 -67t-60 -87t-72 -79t-76 -39q-76 -10 -131 30t-94 104t-62 138t-31 132q-10 58 -11 130zM184 53q12 33 37 33t48 -26t17 -64q30 -10 74 -22t82 -33t60 -57t8 -92q0 -28 -23 -49t-57 -34t-72 -19t-68 -6q-38 8 -56 26t-21 37t6 35t27 20q110 -26 146 -11 t20 45t-75 62t-137 42q-28 80 -16 113z" />
<glyph unicode="&#xe8;" horiz-adv-x="552" d="M-60 114q12 28 27 42t33 31t35 48t31 91q2 12 7 66t11 115t10 115t6 66q2 16 10 58t24 86t39 78t55 34q26 0 46 -11t44 -27q60 -68 59 -150t-31 -167t-72 -167t-64 -150q0 -58 14 -95t72 -37q78 0 143 33t133 81q2 -4 6 -27t4 -27q0 -44 -31 -76t-76 -53t-93 -31t-84 -10 q-34 0 -62 2t-53 13t-46 35t-37 66q-26 -22 -38 -35t-20 -22t-17 -15t-27 -14q-28 0 -50 11t-8 43zM178 1154q0 70 23 80t51 -18q14 -14 35 -55t57 -121q-4 -10 -10 -22t-15 -21t-19 -11t-24 8q-6 4 -14 10t-19 22t-27 46t-38 82zM196 594q0 -22 3 -39t9 -25q10 4 35 42 t33 84t-5 82t-21 38q-16 4 -27 -23t-19 -65q-4 -22 -6 -47t-2 -47z" />
<glyph unicode="&#xe9;" horiz-adv-x="580" d="M-60 114q12 28 27 42t33 31t35 48t31 91q2 12 7 66t11 115t10 115t6 66q2 16 10 58t24 86t39 78t55 34q26 0 46 -11t44 -27q60 -68 59 -150t-31 -167t-72 -167t-64 -150q0 -58 14 -95t72 -37q78 0 143 33t133 81q2 -4 6 -27t4 -27q0 -44 -31 -76t-76 -53t-93 -31t-84 -10 q-34 0 -62 2t-53 13t-46 35t-37 66q-26 -22 -38 -35t-20 -22t-17 -15t-27 -14q-28 0 -50 11t-8 43zM148 1089q0 17 6 27q28 48 41 69t25 36t28 34t52 63q18 10 35 9t29 -11t15 -27t-9 -41l-148 -204q-26 -12 -42 -6t-24 20t-8 31zM196 594q0 -22 3 -39t9 -25q10 4 35 42 t33 84t-5 82t-21 38q-16 4 -27 -23t-19 -65q-4 -22 -6 -47t-2 -47z" />
<glyph unicode="&#xea;" horiz-adv-x="570" d="M-60 114q12 28 27 42t33 31t35 48t31 91q2 12 7 66t11 115t10 115t6 66q2 16 10 58t24 86t39 78t55 34q26 0 46 -11t44 -27q60 -68 59 -150t-31 -167t-72 -167t-64 -150q0 -58 14 -95t72 -37q78 0 143 33t133 81q2 -4 6 -27t4 -27q0 -44 -31 -76t-76 -53t-93 -31t-84 -10 q-34 0 -62 2t-53 13t-46 35t-37 66q-26 -22 -38 -35t-20 -22t-17 -15t-27 -14q-28 0 -50 11t-8 43zM45 1011q3 39 44 106t145 165q44 -18 106 -53t108 -79t61 -93t-33 -97l-218 190l-144 -196q-26 -10 -49 4t-20 53zM196 594q0 -22 3 -39t9 -25q10 4 35 42t33 84t-5 82 t-21 38q-16 4 -27 -23t-19 -65q-4 -22 -6 -47t-2 -47z" />
<glyph unicode="&#xeb;" horiz-adv-x="528" d="M-60 114q12 28 27 42t33 31t35 48t31 91q2 12 7 66t11 115t10 115t6 66q2 16 10 58t24 86t39 78t55 34q26 0 46 -11t44 -27q60 -68 59 -150t-31 -167t-72 -167t-64 -150q0 -58 14 -95t72 -37q78 0 143 33t133 81q2 -4 6 -27t4 -27q0 -44 -31 -76t-76 -53t-93 -31t-84 -10 q-34 0 -62 2t-53 13t-46 35t-37 66q-26 -22 -38 -35t-20 -22t-17 -15t-27 -14q-28 0 -50 11t-8 43zM-12 1082q4 40 28 68t86 36q68 -18 74 -114q0 -54 -25 -74t-77 -20q-58 0 -72 31t-14 73zM196 594q0 -22 3 -39t9 -25q10 4 35 42t33 84t-5 82t-21 38q-16 4 -27 -23 t-19 -65q-4 -22 -6 -47t-2 -47zM342 1082q4 40 28 68t86 36q68 -18 74 -114q0 -54 -25 -74t-77 -20q-58 0 -72 31t-14 73z" />
<glyph unicode="&#xec;" horiz-adv-x="308" d="M-48 1112q0 70 23 80t51 -18q14 -14 35 -55t57 -121q-4 -10 -10 -22t-15 -21t-19 -11t-24 8q-6 4 -14 10t-19 22t-27 46t-38 82zM50 684q0 42 12 68t30 29t38 -21t36 -82q0 -16 7 -70t17 -124t22 -147t20 -139t11 -100t-3 -28q2 -6 -7 -18t-23 -21t-29 -10t-25 19 q-4 16 -12 60t-19 104t-23 129t-23 135t-19 123t-10 93z" />
<glyph unicode="&#xed;" horiz-adv-x="308" d="M28 947q0 17 6 27q28 48 41 69t25 36t28 34t52 63q18 10 35 9t29 -11t15 -27t-9 -41l-148 -204q-26 -12 -42 -6t-24 20t-8 31zM50 684q0 42 12 68t30 29t38 -21t36 -82q0 -16 7 -70t17 -124t22 -147t20 -139t11 -100t-3 -28q2 -6 -7 -18t-23 -21t-29 -10t-25 19 q-4 16 -12 60t-19 104t-23 129t-23 135t-19 123t-10 93z" />
<glyph unicode="&#xee;" horiz-adv-x="308" d="M-79 1005q3 39 44 106t145 165q44 -18 106 -53t108 -79t61 -93t-33 -97l-218 190l-144 -196q-26 -10 -49 4t-20 53zM50 684q0 42 12 68t30 29t38 -21t36 -82q0 -16 7 -70t17 -124t22 -147t20 -139t11 -100t-3 -28q2 -6 -7 -18t-23 -21t-29 -10t-25 19q-4 16 -12 60 t-19 104t-23 129t-23 135t-19 123t-10 93z" />
<glyph unicode="&#xef;" horiz-adv-x="308" d="M-114 1082q4 40 28 68t86 36q68 -18 74 -114q0 -54 -25 -74t-77 -20q-58 0 -72 31t-14 73zM50 684q0 42 12 68t30 29t38 -21t36 -82q0 -16 7 -70t17 -124t22 -147t20 -139t11 -100t-3 -28q2 -6 -7 -18t-23 -21t-29 -10t-25 19q-4 16 -12 60t-19 104t-23 129t-23 135 t-19 123t-10 93zM240 1082q4 40 28 68t86 36q68 -18 74 -114q0 -54 -25 -74t-77 -20q-58 0 -72 31t-14 73z" />
<glyph unicode="&#xf1;" horiz-adv-x="874" d="M-8 966q0 54 10 115t37 112t73 84t118 33q34 -8 69 -40t71 -69t73 -68t73 -38t73 20t73 109h108q14 -24 -11 -64t-67 -77t-86 -62t-68 -19q-56 0 -105 29t-89 65t-71 65t-51 29q-46 0 -73 -25t-40 -61t-18 -74t-7 -64h-92zM10 854q2 18 15 28t31 15t38 7t34 4l46 -304 q10 32 29 88t48 111t68 96t91 41q60 2 115 -52t103 -139t89 -189t71 -204t49 -184t25 -126q-24 -4 -40 -16t-29 -12t-25 20t-26 80q-22 60 -43 130t-41 142t-42 141t-49 125t-58 93t-71 45q-36 0 -62 -32t-44 -80t-29 -106t-18 -111t-10 -94t-3 -57v-57t1 -88t2 -88t3 -57 q-4 -10 -30 -23t-38 -13q-8 0 -23 12t-17 22q-22 206 -60 417t-100 415z" />
<glyph unicode="&#xf2;" d="M56 472q6 16 11 52t10 80t11 92t16 88t25 64t35 24q86 0 182 -23t176 -71t133 -124t53 -182q0 -84 -30 -168t-84 -153t-128 -112t-162 -43q-76 0 -125 54t-78 130t-39 157t-6 135zM158 418q0 -30 5 -85t20 -108t45 -89t82 -28q66 12 115 46t81 82t48 106t16 116 q0 120 -68 195t-194 75q-50 0 -80 -35t-45 -85t-20 -102t-5 -88zM300 1126q0 70 23 80t51 -18q14 -14 35 -55t57 -121q-4 -10 -10 -22t-15 -21t-19 -11t-24 8q-6 4 -14 10t-19 22t-27 46t-38 82z" />
<glyph unicode="&#xf3;" d="M56 472q6 16 11 52t10 80t11 92t16 88t25 64t35 24q86 0 182 -23t176 -71t133 -124t53 -182q0 -84 -30 -168t-84 -153t-128 -112t-162 -43q-76 0 -125 54t-78 130t-39 157t-6 135zM158 418q0 -30 5 -85t20 -108t45 -89t82 -28q66 12 115 46t81 82t48 106t16 116 q0 120 -68 195t-194 75q-50 0 -80 -35t-45 -85t-20 -102t-5 -88zM242 1053q0 17 6 27q28 48 41 69t25 36t28 34t52 63q18 10 35 9t29 -11t15 -27t-9 -41l-148 -204q-26 -12 -42 -6t-24 20t-8 31z" />
<glyph unicode="&#xf4;" d="M56 472q6 16 11 52t10 80t11 92t16 88t25 64t35 24q86 0 182 -23t176 -71t133 -124t53 -182q0 -84 -30 -168t-84 -153t-128 -112t-162 -43q-76 0 -125 54t-78 130t-39 157t-6 135zM83 1005q3 39 44 106t145 165q44 -18 106 -53t108 -79t61 -93t-33 -97l-218 190 l-144 -196q-26 -10 -49 4t-20 53zM158 418q0 -30 5 -85t20 -108t45 -89t82 -28q66 12 115 46t81 82t48 106t16 116q0 120 -68 195t-194 75q-50 0 -80 -35t-45 -85t-20 -102t-5 -88z" />
<glyph unicode="&#xf5;" d="M-44 966q0 54 10 115t37 112t73 84t118 33q34 -8 69 -40t71 -69t73 -68t73 -38t73 20t73 109h108q14 -24 -11 -64t-67 -77t-86 -62t-68 -19q-56 0 -105 29t-89 65t-71 65t-51 29q-46 0 -73 -25t-40 -61t-18 -74t-7 -64h-92zM56 472q6 16 11 52t10 80t11 92t16 88t25 64 t35 24q86 0 182 -23t176 -71t133 -124t53 -182q0 -84 -30 -168t-84 -153t-128 -112t-162 -43q-76 0 -125 54t-78 130t-39 157t-6 135zM158 418q0 -30 5 -85t20 -108t45 -89t82 -28q66 12 115 46t81 82t48 106t16 116q0 120 -68 195t-194 75q-50 0 -80 -35t-45 -85t-20 -102 t-5 -88z" />
<glyph unicode="&#xf6;" d="M56 472q6 16 11 52t10 80t11 92t16 88t25 64t35 24q86 0 182 -23t176 -71t133 -124t53 -182q0 -84 -30 -168t-84 -153t-128 -112t-162 -43q-76 0 -125 54t-78 130t-39 157t-6 135zM82 1082q4 40 28 68t86 36q68 -18 74 -114q0 -54 -25 -74t-77 -20q-58 0 -72 31t-14 73z M158 418q0 -30 5 -85t20 -108t45 -89t82 -28q66 12 115 46t81 82t48 106t16 116q0 120 -68 195t-194 75q-50 0 -80 -35t-45 -85t-20 -102t-5 -88zM436 1082q4 40 28 68t86 36q68 -18 74 -114q0 -54 -25 -74t-77 -20q-58 0 -72 31t-14 73z" />
<glyph unicode="&#xf8;" d="M56 472q6 16 11 52t10 80t11 92t16 88t25 64t35 24q86 0 182 -23t176 -71t133 -124t53 -182q0 -84 -30 -168t-84 -153t-128 -112t-162 -43q-76 0 -125 54t-78 130t-39 157t-6 135zM71.5 6q-6.5 10 0.5 25l429 809q13 11 27.5 12t27 -5.5t19 -21.5t4.5 -38l-427 -795 q-14 -5 -30.5 -5t-30 4.5t-20 14.5zM158 418q0 -30 5 -85t20 -108t45 -89t82 -28q66 12 115 46t81 82t48 106t16 116q0 120 -68 195t-194 75q-50 0 -80 -35t-45 -85t-20 -102t-5 -88z" />
<glyph unicode="&#xf9;" d="M16 746q-10 28 19 59t69 41q20 -36 42 -113l48 -168t58 -180t72 -149t89 -77t111 39q22 38 36 131t16 204t-8 223t-34 188q12 14 29 12t34 -14t30 -32t15 -38q24 -58 36 -136t14 -161t-7 -168t-28 -158t-49 -130t-70 -85q-78 -30 -143 0t-118 96t-94 156t-73 179t-55 165 t-39 116zM266 1126q0 70 23 80t51 -18q14 -14 35 -55t57 -121q-4 -10 -10 -22t-15 -21t-19 -11t-24 8q-6 4 -14 10t-19 22t-27 46t-38 82z" />
<glyph unicode="&#xfa;" horiz-adv-x="720" d="M16 746q-10 28 19 59t69 41q20 -36 42 -113l48 -168t58 -180t72 -149t89 -77t111 39q22 38 36 131t16 204t-8 223t-34 188q12 14 29 12t34 -14t30 -32t15 -38q24 -58 36 -136t14 -161t-7 -168t-28 -158t-49 -130t-70 -85q-78 -30 -143 0t-118 96t-94 156t-73 179t-55 165 t-39 116zM206 1053q0 17 6 27q28 48 41 69t25 36t28 34t52 63q18 10 35 9t29 -11t15 -27t-9 -41l-148 -204q-26 -12 -42 -6t-24 20t-8 31z" />
<glyph unicode="&#xfb;" horiz-adv-x="720" d="M16 746q-10 28 19 59t69 41q20 -36 42 -113l48 -168t58 -180t72 -149t89 -77t111 39q22 38 36 131t16 204t-8 223t-34 188q12 14 29 12t34 -14t30 -32t15 -38q24 -58 36 -136t14 -161t-7 -168t-28 -158t-49 -130t-70 -85q-78 -30 -143 0t-118 96t-94 156t-73 179t-55 165 t-39 116zM61 1067q3 39 44 106t145 165q44 -18 106 -53t108 -79t61 -93t-33 -97l-218 190l-144 -196q-26 -10 -49 4t-20 53z" />
<glyph unicode="&#xfc;" horiz-adv-x="708" d="M16 746q-10 28 19 59t69 41q20 -36 42 -113l48 -168t58 -180t72 -149t89 -77t111 39q22 38 36 131t16 204t-8 223t-34 188q12 14 29 12t34 -14t30 -32t15 -38q24 -58 36 -136t14 -161t-7 -168t-28 -158t-49 -130t-70 -85q-78 -30 -143 0t-118 96t-94 156t-73 179t-55 165 t-39 116zM22 1106q4 40 28 68t86 36q68 -18 74 -114q0 -54 -25 -74t-77 -20q-58 0 -72 31t-14 73zM376 1106q4 40 28 68t86 36q68 -18 74 -114q0 -54 -25 -74t-77 -20q-58 0 -72 31t-14 73z" />
<glyph unicode="&#xfd;" horiz-adv-x="852" d="M27 763q-1 45 1 59q14 0 31 2t32 0t29 -9t24 -27q-6 -30 -7 -79t6 -106t23 -116t42 -107t63 -80t87 -36q78 -2 124 44t71 117t34 155t16 156t15 122t32 52q34 2 59 -15t29 -63q4 -18 14 -64t20 -98t19 -98t13 -64q6 -26 13 -93t9 -154t-4 -183t-26 -181t-57 -149t-97 -84 q-22 0 -38 13t-27 32t-17 40t-8 37q60 16 96 66t54 118t20 148t-3 158t-16 147t-19 117q-14 -62 -37 -135t-60 -136t-90 -105t-129 -44q-68 -2 -124 39t-98 102t-69 129t-37 120q-4 14 -6 59t-4 97t-3 97zM350 1053q0 17 6 27q28 48 41 69t25 36t28 34t52 63q18 10 35 9 t29 -11t15 -27t-9 -41l-148 -204q-26 -12 -42 -6t-24 20t-8 31z" />
<glyph unicode="&#xfe;" horiz-adv-x="822" d="M38 1136q44 48 70 41t48 -85q4 -26 9 -82t9 -118t8 -119t8 -83q22 50 55 109t76 109t95 83t116 33q72 0 119 -35t74 -89t38 -119t11 -127q0 -72 -20 -149t-61 -141t-102 -105t-145 -41q-46 0 -94 5t-94 15l18 -228q-10 -34 -46 -37t-68 49zM279 436q3 -54 15 -88 q6 -6 22 -9t34 -6t35 -4t23 -1q72 0 121 31t79 79t43 108t13 120q0 28 -1 70t-11 81t-32 66t-66 27q-64 -6 -112 -40t-81 -85t-52 -113t-26 -122t-4 -114z" />
<glyph unicode="&#xff;" horiz-adv-x="862" d="M27 763q-1 45 1 59q14 0 31 2t32 0t29 -9t24 -27q-6 -30 -7 -79t6 -106t23 -116t42 -107t63 -80t87 -36q78 -2 124 44t71 117t34 155t16 156t15 122t32 52q34 2 59 -15t29 -63q4 -18 14 -64t20 -98t19 -98t13 -64q6 -26 13 -93t9 -154t-4 -183t-26 -181t-57 -149t-97 -84 q-22 0 -38 13t-27 32t-17 40t-8 37q60 16 96 66t54 118t20 148t-3 158t-16 147t-19 117q-14 -62 -37 -135t-60 -136t-90 -105t-129 -44q-68 -2 -124 39t-98 102t-69 129t-37 120q-4 14 -6 59t-4 97t-3 97zM106 1078q4 40 28 68t86 36q68 -18 74 -114q0 -54 -25 -74t-77 -20 q-58 0 -72 31t-14 73zM460 1078q4 40 28 68t86 36q68 -18 74 -114q0 -54 -25 -74t-77 -20q-58 0 -72 31t-14 73z" />
<glyph unicode="&#x152;" horiz-adv-x="1386" d="M36 1030q6 48 21 82t30 43t30 -11t21 -78q2 -10 3 -21t1 -21q20 40 53 72t70 53t73 32t64 11q38 0 92 -27t92 -63q86 6 174 28t171 47t156 46t129 27t92 -9t42 -65q-32 -26 -95 -45t-139 -36t-155 -34t-144 -37t-105 -47t-38 -63q0 -28 2 -59t7 -57t15 -43t26 -17 q42 0 81 13t78 30t78 30t79 13q22 0 39 -19t17 -45q2 -28 -28 -46t-75 -32t-98 -30t-98 -41t-76 -64t-31 -101q0 -48 8 -91t26 -76t49 -53t77 -20q44 -4 96 31t100 86t86 106t56 91q20 -22 23 -50t-5 -59t-23 -62t-33 -57q-22 -30 -62 -75t-87 -87t-95 -73t-86 -31 q-46 0 -80 22t-60 58q-8 -14 -40 -32t-73 -35t-83 -29t-68 -12q-90 0 -153 49t-104 131t-65 189t-35 221t-16 229t-7 213zM152 900q4 -84 9 -180t14 -189t27 -176t48 -141t77 -85t115 -9q16 -4 43 3t56 19t53 28t36 32v4q-24 68 -34 139t-14 121l-24 512q-28 40 -69 74 t-93 36q-22 14 -54 -9t-67 -58t-68 -71t-55 -50z" />
<glyph unicode="&#x153;" horiz-adv-x="1012" d="M56 472q6 16 11 52t10 80t11 92t16 88t25 64t35 24q96 0 201 -28t189 -88q6 28 17 59t24 56t31 42t40 17q26 0 46 -11t44 -27q60 -68 59 -150t-31 -167t-72 -167t-64 -150q0 -58 14 -95t72 -37q78 0 143 33t133 81q2 -4 6 -27t4 -27q0 -44 -31 -76t-76 -53t-93 -31 t-84 -10q-60 0 -106 12t-80 76q-50 -50 -113 -79t-133 -29q-76 0 -125 54t-78 130t-39 157t-6 135zM158 418q0 -30 5 -85t20 -108t45 -89t82 -28q50 8 92 30q44 30 66 78t34 106t16 127t12 141q0 14 2 22q-32 54 -89 85t-135 31q-50 0 -80 -35t-45 -85t-20 -102t-5 -88z M634 580q0 -22 3 -39t9 -25q10 4 35 42t33 84t-5 82t-21 38q-16 4 -27 -23t-19 -65q-4 -22 -6 -47t-2 -47z" />
<glyph unicode="&#x178;" horiz-adv-x="1042" d="M32 1049q-8 49 0 90t50 53q58 4 76 -28t20 -86t-1 -122t11 -136q10 -48 21 -99t32 -93t58 -69t97 -25q114 2 194 63t127 153t62 202t-1 212h38t36 -4t30 -18t20 -40q32 -164 53 -329t39 -333q6 -30 9 -100t-6 -147t-34 -140t-75 -77q-48 0 -65 18t-25 52q-4 18 13 65 t35 114t29 150t-7 171q-2 8 -6 29t-10 45t-10 44t-6 28q-20 -52 -65 -106t-107 -98t-135 -73t-147 -31q-62 -2 -107 23t-77 67t-54 95t-36 108t-23 107t-17 92q-2 26 -15 75t-21 98zM170 1328q4 40 28 68t86 36q68 -18 74 -114q0 -54 -25 -74t-77 -20q-58 0 -72 31t-14 73z M524 1328q4 40 28 68t86 36q68 -18 74 -114q0 -54 -25 -74t-77 -20q-58 0 -72 31t-14 73z" />
<glyph unicode="&#x2c6;" horiz-adv-x="586" d="M57 1005q3 39 44 106t145 165q44 -18 106 -53t108 -79t61 -93t-33 -97l-218 190l-144 -196q-26 -10 -49 4t-20 53z" />
<glyph unicode="&#x2dc;" horiz-adv-x="854" d="M28 966q0 54 10 115t37 112t73 84t118 33q34 -8 69 -40t71 -69t73 -68t73 -38t73 20t73 109h108q14 -24 -11 -64t-67 -77t-86 -62t-68 -19q-56 0 -105 29t-89 65t-71 65t-51 29q-46 0 -73 -25t-40 -61t-18 -74t-7 -64h-92z" />
<glyph unicode="&#x2000;" horiz-adv-x="811" />
<glyph unicode="&#x2001;" horiz-adv-x="1622" />
<glyph unicode="&#x2002;" horiz-adv-x="811" />
<glyph unicode="&#x2003;" horiz-adv-x="1622" />
<glyph unicode="&#x2004;" horiz-adv-x="540" />
<glyph unicode="&#x2005;" horiz-adv-x="405" />
<glyph unicode="&#x2006;" horiz-adv-x="270" />
<glyph unicode="&#x2007;" horiz-adv-x="270" />
<glyph unicode="&#x2008;" horiz-adv-x="202" />
<glyph unicode="&#x2009;" horiz-adv-x="324" />
<glyph unicode="&#x200a;" horiz-adv-x="90" />
<glyph unicode="&#x2010;" horiz-adv-x="772" d="M73 503q7 25 37 41q132 16 263 26t269 14q24 -6 33 -26t6 -45t-15 -48t-32 -31l-480 -36q-28 0 -50 17t-30 40t-1 48z" />
<glyph unicode="&#x2011;" horiz-adv-x="772" d="M73 503q7 25 37 41q132 16 263 26t269 14q24 -6 33 -26t6 -45t-15 -48t-32 -31l-480 -36q-28 0 -50 17t-30 40t-1 48z" />
<glyph unicode="&#x2012;" horiz-adv-x="772" d="M73 503q7 25 37 41q132 16 263 26t269 14q24 -6 33 -26t6 -45t-15 -48t-32 -31l-480 -36q-28 0 -50 17t-30 40t-1 48z" />
<glyph unicode="&#x2013;" horiz-adv-x="1392" d="M108 1038q44 12 72 -25t48 -103t36 -154t37 -181t53 -180t83 -151t125 -97t182 -17q140 0 241 64t165 166t94 229t30 253q0 58 -13 111t-29 104t-29 102t-13 107q42 0 71 -27t46 -70t25 -96t11 -105t2 -96t-1 -68q0 -144 -35 -284t-110 -254t-193 -189t-282 -89 q-114 -10 -204 42t-158 143t-117 208t-79 236t-44 230t-14 191zM460 911q-14 39 10 127q22 8 47 5t47 -15t37 -32t17 -46q-14 -36 -48 -60t-65 -21t-45 42zM722 968q16 52 43 66t52 3t44 -38t22 -57t-17 -56t-72 -32q-22 0 -36 10t-22 27t-11 37t-3 40z" />
<glyph unicode="&#x2014;" horiz-adv-x="1696" d="M38 540q0 68 32 114t81 74t106 39t107 11q64 0 123 -18t123 -18q8 -6 19 33t32 99t52 133t78 136t113 106t154 47q70 2 115 -19t71 -58t33 -83t0 -97t-28 -100t-51 -89v-16q34 22 84 39t105 25t109 4t96 -25t65 -61t17 -102q-14 -98 -74 -169t-144 -118t-181 -70 t-183 -23q24 -50 42 -108t26 -117t3 -115t-25 -104q-50 -60 -112 -72t-124 12t-118 75t-91 116t-44 137t23 136q-72 -32 -163 -37t-181 23t-168 92t-122 168zM152 562q6 -44 43 -76t87 -54t106 -36t103 -20t76 -7t27 3q38 0 68 23t30 69q-30 72 -66 113t-79 62t-94 28 t-109 11q-28 0 -61 -4t-62 -17t-49 -36t-20 -59zM744 686q0 -36 7 -56t22 -29t41 -11t62 -2q24 12 67 62t89 118t83 142t49 136t-12 99t-100 31q-88 0 -147 -48t-95 -121t-51 -159t-15 -162zM752 227q-2 -57 24 -118t68 -106t94 -66t102 5q38 78 32 153t-34 135t-65 100 t-59 50q-84 -10 -122 -53t-40 -100zM1008 510q0 -34 25 -50t60 -23t70 -7h57q54 8 113 37t110 67t89 82t48 82t-12 67t-90 39q-70 0 -137 -22t-128 -59t-113 -88t-90 -111q-2 -2 -2 -6v-8z" />
<glyph unicode="&#x2018;" horiz-adv-x="304" d="M66 973q2 45 27 66t87 11q-6 -26 -1 -59t11 -72t11 -82t1 -89q-16 -10 -25 -15t-18 -7t-21 -2h-30q-16 76 -30 140t-12 109z" />
<glyph unicode="&#x2019;" horiz-adv-x="270" d="M86 690q-4 50 1 99t11 92t11 80t-1 65q62 12 87 -12t26 -74t-13 -122t-30 -156q-36 0 -49 3t-43 25z" />
<glyph unicode="&#x201a;" horiz-adv-x="204" d="M40 -24q-4 50 1 99t11 92t11 80t-1 65q62 12 87 -12t26 -74t-13 -122t-30 -156q-36 0 -49 3t-43 25z" />
<glyph unicode="&#x201c;" horiz-adv-x="406" d="M54 916q-8 20 1 37t26 28t37 14t32 -3q-16 -60 -1 -118t30 -107t14 -87t-49 -56q-16 0 -32 8t-20 30q-4 16 -11 53t-13 78t-10 76t-4 47zM210 942q-8 20 1 37t26 28t37 14t32 -3q-16 -60 -1 -118t30 -107t14 -87t-49 -56q-16 0 -32 8t-20 30q-4 16 -11 53t-13 78t-10 76 t-4 47z" />
<glyph unicode="&#x201d;" horiz-adv-x="406" d="M55 720q-1 36 14 83t30 103t-1 112q12 6 30 3t35 -13t26 -26t1 -36q0 -12 -4 -45t-10 -72t-12 -74t-10 -51q-4 -22 -19 -30t-31 -8q-48 18 -49 54zM205 695q-1 35 14 83t30 103t-1 113q12 6 31 3t35 -14t25 -27t1 -34q0 -12 -4 -46t-10 -73t-12 -74t-10 -51 q-4 -20 -19 -28t-31 -8q-48 18 -49 53z" />
<glyph unicode="&#x201e;" horiz-adv-x="406" d="M64 140q-8 20 1 37t26 28t37 14t32 -3q-16 -60 -1 -118t30 -107t14 -87t-49 -56q-16 0 -32 8t-20 30q-4 16 -11 53t-13 78t-10 76t-4 47zM220 166q-8 20 1 37t26 28t37 14t32 -3q-16 -60 -1 -118t30 -107t14 -87t-49 -56q-16 0 -32 8t-20 30q-4 16 -11 53t-13 78t-10 76 t-4 47z" />
<glyph unicode="&#x2026;" horiz-adv-x="1062" d="M100 104q4 40 28 68t86 36q68 -18 74 -114q0 -54 -25 -74t-77 -20q-58 0 -72 31t-14 73zM454 104q4 40 28 68t86 36q68 -18 74 -114q0 -54 -25 -74t-77 -20q-58 0 -72 31t-14 73zM808 104q4 40 28 68t86 36q68 -18 74 -114q0 -54 -25 -74t-77 -20q-58 0 -72 31t-14 73z " />
<glyph unicode="&#x202f;" horiz-adv-x="324" />
<glyph unicode="&#x205f;" horiz-adv-x="405" />
<glyph unicode="&#x20ac;" horiz-adv-x="770" d="M-7 652q9 26 40 39t67 19t44 20q-4 104 4 181t35 132t76 90t129 55q34 4 74 -16t74 -51t59 -67t31 -64q10 -24 2 -37t-25 -19t-40 -9t-43 -9q0 20 -10 44t-28 44t-42 33t-52 9q-48 -6 -74 -35t-38 -71t-14 -95t-2 -107q20 2 27 1t23 3q8 2 26 4t38 4t38 4t24 4 q48 6 69 -5t25 -29t-2 -38t-8 -32q-54 -12 -114 -26t-124 -26l6 -74q68 10 134 18t112 14q32 4 50 -10t21 -33t-9 -37t-38 -20l-254 -62q14 -108 40 -179t70 -92t108 13t156 136q12 6 22 -7t15 -32t3 -40t-14 -29q-22 -24 -62 -62t-90 -66t-104 -37t-104 26t-91 124t-63 255 l-98 -22q-28 4 -40 18t-14 31t4 32t16 23q22 10 48 16t60 14q0 18 -2 36l-4 36q-36 -8 -67 -12t-63 -8q-46 54 -37 80z" />
<glyph unicode="&#x25fc;" horiz-adv-x="970" d="M0 0v970h970v-970h-970z" />
</font>
</defs>
</svg>
